<?xml version="1.0" encoding="utf-8"?>
<!-- Generator: Adobe Illustrator 25.4.1, SVG Export Plug-In . SVG Version: 6.00 Build 0)  -->
<svg version="1.0" id="Layer_1" xmlns="http://www.w3.org/2000/svg" xmlns:xlink="http://www.w3.org/1999/xlink" x="0px" y="0px"
	 viewBox="0 0 617 100" enable-background="new 0 0 617 100" xml:space="preserve">
<path fill="#FF5300" d="M143.7,49.3c0,12.2,9.1,20.3,20.1,20.3c6,0,11.8-1.6,16.9-4.8v11.8c-2.3,1.4-9.2,4-16.9,4
	c-17.9,0-32.1-13.6-32.1-31.3S146,18,163.9,18c7.7,0,14.6,2.6,16.9,4v11.8c-5.1-3.1-11-4.8-16.9-4.8C152.8,29,143.7,37.1,143.7,49.3
	z M233.5,50v29.7h-11V53.5c0-5.2-2.3-9.1-8.2-9.1c-5.7,0-9.1,3.6-9.1,10.1v25.1h-11V15.3h11v27.6c0.8-2,3.9-8.2,13.1-8.2
	C227.8,34.7,233.5,40.4,233.5,50L233.5,50z M293.3,70.4v9.3h-14.2c-0.9,0.1-1.7-0.6-1.8-1.6c0,0,0-0.1,0-0.1v-7.9
	c-1.5,5.2-5.5,10.5-14,10.5c-11.5,0-19.8-8.6-19.8-22.9c0-14.6,9.1-22.9,20.4-22.9c10.4,0,12.5,8.6,12.5,8.6v-7.7h11v34.8H293.3z
	 M276.8,57.7c0-8.3-4-13.5-10.6-13.5c-6.4,0-11.2,4.7-11.2,13.4s4,13.4,10.7,13.4C272.5,71.1,276.8,66.7,276.8,57.7z M318.5,37.4
	v42.3h-11V44.9h-8v-9.3h17.3c0.9,0,1.7,0.7,1.7,1.6C318.5,37.3,318.5,37.3,318.5,37.4z M318.2,26.4h-11.9V15.3h11.9V26.4z
	 M331.4,35.6h10.9v7.8c0.4-1.2,3-8.7,13.3-8.7c9.5,0,15.2,5.7,15.2,15.3v29.7h-11V53.5c0-5.2-2.3-9.1-8.2-9.1
	c-5.7,0-9.1,3.6-9.1,10.1v25.1h-11L331.4,35.6z M430.5,70.4v9.3h-14.2c-0.9,0.1-1.7-0.6-1.8-1.6c0,0,0-0.1,0-0.1v-7.9
	c-1.5,5.2-5.5,10.5-14,10.5c-11.5,0-19.8-8.6-19.8-22.9c0-14.6,9.1-22.9,20.4-22.9c10.4,0,12.5,8.6,12.5,8.6v-7.7h11v34.8H430.5z
	 M414,57.7c0-8.3-4-13.5-10.6-13.5c-6.4,0-11.2,4.7-11.2,13.4s4,13.4,10.7,13.4C409.7,71.1,414,66.7,414,57.7z M453,18v61.7H442
	V24.6h-6.9v-9.3h15.3C451.8,15.3,453,16.5,453,18C453,18,453,18,453,18z M472.9,100h-11v-9.3h8.1c2.9,0,4.2-0.9,5.3-3.5l3.3-8.3
	l-17-43.3h12.3l10.3,31.1l10.7-31.1h12.3l-21.7,55.8C483.1,97.4,479.3,100,472.9,100z M513.2,76.9V66.2c1.5,1,7.6,5,14.4,5
	c5.2,0,7.5-1.5,7.5-4.4c0-8.7-22.5-2.3-22.5-18.9c0-7.5,6.3-13.2,18-13.2c6.4,0,11,1.7,12.8,2.7V48c-2.2-1.4-6.6-4.2-12.6-4.2
	c-5.2,0-7.1,1.6-7.1,4.1c0,7.1,22.4,2.2,22.4,18.4c0,8.8-7.3,14.4-18,14.4C521,80.6,515.2,78.2,513.2,76.9z M572.4,37.4v42.3h-11
	V44.9h-8v-9.3h17.3c0.9,0,1.7,0.7,1.7,1.6C572.4,37.3,572.4,37.3,572.4,37.4z M572,26.4h-11.9V15.3H572V26.4z M584.2,76.9V66.2
	c1.5,1,7.6,5,14.4,5c5.2,0,7.5-1.5,7.5-4.4c0-8.7-22.5-2.3-22.5-18.9c0-7.5,6.3-13.2,18-13.2c6.4,0,11,1.7,12.8,2.7V48
	c-3.7-2.6-8.1-4.1-12.6-4.2c-5.2,0-7.2,1.6-7.2,4.1c0,7.1,22.4,2.2,22.4,18.4c0,8.8-7.3,14.4-18,14.4
	C592,80.6,586.2,78.2,584.2,76.9L584.2,76.9z"/>
<path fill="#FF5300" d="M50,0c1.1,0,2.4,0.1,2.4,0.1c-3.8,4.5-6,10.1-6.5,15.9c-14.5,2.4-25.8,14-27.9,28.6
	c-6.5,0.7-13.8,3.7-18,7.9C-1,23.5,21.3,0,50,0z M57.2,87.2c-1.3,0.2-2.7,0.3-4,0.3c-2.3,0-4.6-0.2-6.9-0.6c-1.8,4.3-4.1,8.3-7,12
	c-18.3-4-32.8-18-37.6-36.1c4.5-5.3,14.9-8.5,21.4-8.5c13.8,0,21.1,7.3,23.7,18.7c-8.3-2.2-13.2-6.9-16.5-13.8c-1.9-0.7-3.9-1-5.9-1
	c-1.8,0-3.6,0.3-5.4,0.8c3.7,14,17.2,24.4,33.7,24.4c15.2,0,21.7-7.7,21.7-7.7V63.9c0,0-7.5,7.8-16.8,9.3
	c-2.1-14.9-13.9-26.5-28.7-28.6c2.4-11.8,11.4-18.5,23.6-18.5s22.1,8.9,22.1,8.9V23.4c0,0-6.3-5.9-17.6-7.2
	c0.3-5.2,3.7-11.7,7.3-14.1c15.3,4.8,30.1,17.8,34.3,36.6c0,0-6.8,6.8-19.4,6.8c-10.4,0-17-5.2-20.7-14.4c-1.9-0.7-4-1-6-1
	c-1.9,0-3.8,0.3-5.6,1c4.1,14.7,17,24.5,31.4,24.5c14.1,0,21.7-6.5,21.7-6.5c0,29.3-22.4,50.3-49,50.8C54.1,97,56.5,90.4,57.2,87.2z
	"/>
</svg>
