<svg xmlns="http://www.w3.org/2000/svg" id="Layer_1" data-name="Layer 1" viewBox="0 0 206 206"><defs><style>.cls-1{fill:#c8a530}.cls-2{fill:#f66b48}.cls-3{fill:#897f69}.cls-4{fill:#525453}.cls-5{fill:#a27d31}.cls-6{fill:#fe8700}.cls-7{fill:#fee95e}.cls-8{fill:#fefefe}.cls-9{fill:#898069}.cls-10{fill:#f65d25}</style></defs><title>sol</title><path d="M127.54,158.74h-8.7a1.88,1.88,0,0,0-.32.31.79.79,0,0,0-.15.4c0,8.83,0,17.67,0,26.81h-9.17c-.19-.19-.37-.39-.56-.59-1.22-2.85-.61-5.86-.74-8.81s-.09-6,0-9c-.11-3.06-.1-6.12,0-9.19s-.68-6.34,1.06-9.27c2.91-1.88,6.16-1.09,9.3-1.17,3.1.09,6.28-.61,9.25.92,2,2.85,1.62,5.89.66,9Z"/><path d="M155.07,94.51v8.7a1.88,1.88,0,0,0,.31.32.73.73,0,0,0,.39.15h17.65v9.18l-.61.57c-2.94,1.24-6,.61-9.06.74-6-.26-12,1.18-17.92-1-2-2.88-1.19-6.15-1.27-9.3.1-3.1-.62-6.29,1-9.23,2.81-2.11,5.84-1.69,8.91-.74Z"/><path d="M155.07,57.81V49.14a1.32,1.32,0,0,1,.29-.33.66.66,0,0,1,.38-.17h26.65V67h-9c-.18-.18-.35-.36-.53-.53-1.89-7.33-1.89-7.3-9.68-7.36-2.55,0-5.17.42-7.61-.75C155.42,58.17,155.24,58,155.07,57.81Z"/><path d="M191.77,131.21q0,4.33,0,8.67c0,.11-.18.22-.42.51H155.07l-.57-.62c-1-3-1.33-6,.62-8.83,2.87-1.69,6-1,9.07-1.05s6.08-.11,9.11,0c3-.06,6-.1,9,0s6-.49,8.87.73Z"/><path d="M118.36,21.1h8.71a2.42,2.42,0,0,1,.32.32.71.71,0,0,1,.14.39c0,8.84,0,17.67,0,26.82h-9.18l-.55-.59c-1.22-2.83-.61-5.82-.74-8.74s-.09-5.88,0-8.82-.49-5.94.73-8.79C118,21.49,118.18,21.3,118.36,21.1Z"/><path d="M155.07,158.74h9.17v9.17a3.43,3.43,0,0,1-2,1c-4,0-5.78,1.76-6.23,5.92-.42,3.88-4.83,4.66-10.13,2.22-2.12-2.82-1.21-6.08-1.33-9.2.09-3.17-.73-6.45,1.15-9.4C148.87,156.92,152,156.74,155.07,158.74Z" class="cls-1"/><path d="M45,131.21v-9c2.92-.46,5.92,0,9.18-.32v-9l.62-.57c3-1,6-1.33,8.91.54,1.59,2.93.89,6.1,1,9.19-.09,3.09.67,6.3-1.11,9.2-2.77,2-6,1.21-9,1.3-3-.13-6,.49-8.94-.74Z"/><path d="M54.14,67H45.43a1.62,1.62,0,0,1-.32-.32.8.8,0,0,1-.14-.39c0-8.83,0-17.67,0-26.82h9.18c.19.22.38.43.58.64a88.63,88.63,0,0,1,0,26.27C54.53,66.57,54.33,66.77,54.14,67Z"/><path d="M17.43,85.33v-8.7a2.42,2.42,0,0,1,.32-.32.73.73,0,0,1,.39-.15H45v9.17l-.59.56c-2.83,1.21-5.82.61-8.74.74s-5.88.09-8.82,0-5.94.49-8.79-.73Z"/><path d="M109.19,186.26v17.87a1.88,1.88,0,0,1-.31.32.71.71,0,0,1-.39.16H90.84v-9.17l.52-.52a3.33,3.33,0,0,1,1.72-.57c3.86.21,6.16-1.12,5.81-5.46a3.45,3.45,0,0,1,1.44-3.22C103.37,184.64,106.36,184.3,109.19,186.26Z"/><path d="M72.49,48.63h9.17l.52.52a3.79,3.79,0,0,1,.62,2.16c-.31,3.91,1.46,5.61,5.34,5.39a3.6,3.6,0,0,1,3.2,1.48c1.16,3,1.36,6-.26,9-2.93,1.86-6.19,1.06-9.34,1.15-3.14-.08-6.37.66-9.34-1-2-2.82-1.15-6-1.22-9.1.13-3-.5-6.07.73-9Z"/><path d="M118.36,48.63v9c2.92.47,5.93,0,9.18.32V67l-.64.59c-6,1.12-11.9,1.68-17.78-.43-2-2.89-1.16-6.17-1.27-9.32.09-3.18-.72-6.47,1.15-9.43C112.16,46.81,115.29,46.63,118.36,48.63Z"/><path d="M145.89,177.09h9c.47-2.92,0-5.93.32-9.18h9.05v18.18c-6,.39-12,.06-18.35.21Z"/><path d="M45,85.33H63.31l.6.65a8,8,0,0,1,.74,4c0,4.38-1.16,5.63-5.52,5.93a39.26,39.26,0,0,1-5,0c-3.18-.09-6.47.74-9.44-1.14C43.15,91.53,43,88.41,45,85.33Z"/><path d="M90.84,30.28q0-8.87,0-17.72c0-.12.12-.25.32-.63H100l.6.65c1.48,5,.81,10.17.54,15.27-.16,2.86-2.31,3.64-4.8,3.74a9.26,9.26,0,0,1-4.87-.71Z"/><path d="M35.78,103.68H18.07c-.13,0-.25-.13-.64-.33V94.51L18,94c2.86-1.22,5.87-.61,8.82-.74,3,.06,6.1-.6,8.95.94,1.89,2.87,1.55,5.87.57,8.92Z"/><path d="M54.14,112.86H36.42c-.13,0-.25-.12-.64-.33v-8.84c2.83-2.12,6.09-1.2,9.2-1.33,3.17.09,6.45-.73,9.4,1.15C56,106.66,56.14,109.79,54.14,112.86Z"/><path d="M81.66,48.63q0-8.87,0-17.72c0-.12.12-.25.33-.63h8.84c2.11,2.81,1.21,6.06,1.33,9.16-.11,3.15.74,6.43-1.24,9.33C87.82,50.46,84.72,50.61,81.66,48.63Z"/><path d="M127.54,67h18.35c.19.21.38.42.58.62,1,3.05,1.32,6.06-.56,8.93-2.95,1.59-6.14.87-9.24,1-3.16-.09-6.44.73-9.38-1.15C125.73,73.18,125.54,70.05,127.54,67Z"/><path d="M173.42,112.86h17.72c.12,0,.24.12.63.33V122l-.57.55c-2.78,1.2-5.71.61-8.59.73-2.9-.08-5.85.38-8.7-.59a2.59,2.59,0,0,1-1.16-1.13C171.94,118.6,171.49,115.64,173.42,112.86Z"/><path d="M35.78,158.74h-9c-.36-6-.05-12-.19-18.35h9.2l.55.57c1.2,2.78.61,5.72.74,8.59-.12,2.88.47,5.82-.73,8.62Z"/><path d="M81.66,149.56H63.31c-.18-.18-.35-.37-.53-.56a12.34,12.34,0,0,1,0-8.35,2.68,2.68,0,0,1,1.2-1c2.92-.89,5.93-.46,8.91-.54a12.2,12.2,0,0,1,1.81-.09c8.12,0,9.61,2,7.58,9.94Z"/><path d="M173.42,67V85.33h-9.18l-.56-.6c-1.23-2.89-.6-5.93-.74-8.92.07-3.09-.74-6.29,1.19-9.14C167.28,65.21,170.39,65,173.42,67Z"/><path d="M155.07,158.74h-9.18c-2.22-2.8-1.14-6.07-1.33-9.16.11-3.15-.74-6.43,1.24-9.33,3.11-1.7,6.21-1.84,9.27.14Z"/><path d="M63.31,149.56v9.18H45l-.53-.56a12.34,12.34,0,0,1,0-8.35,2.71,2.71,0,0,1,1.19-1c2.9-.89,5.88-.46,8.84-.54C57.45,148.33,60.59,147.5,63.31,149.56Z"/><path d="M81.66,167.91V149.56c3-2,6.14-1.77,9.29-.31,2,2.91,1.13,6.18,1.22,9.33-.09,3.11.61,6.29-.92,9.26-2.85,2-5.89,1.62-9,.66Z"/><path d="M90.84,195.44H81.66V177.09l.58-.54a11.61,11.61,0,0,1,8.52.13,3.35,3.35,0,0,1,1,1.34C92.16,183.87,93.39,189.75,90.84,195.44Z"/><path d="M100,11.93V3c1.39-.55,2.9-.2,4.36-.25s3,0,4.82,0v9.18l-.6.56C105.66,13.47,102.76,13.8,100,11.93Z"/><path d="M109.19,11.93h9.17V21.1c-3.06,2-6.62,2.43-9.11-.06S107.19,15,109.19,11.93Z"/><path d="M54.14,39.45v-8.9c1.38-.55,2.89-.2,4.36-.26s3,0,4.81,0v9.17l-.59.57C59.78,41,56.89,41.33,54.14,39.45Z"/><path d="M63.31,39.45h9.18v9.18c-3.07,2-6.63,2.43-9.12-.06S61.32,42.52,63.31,39.45Z"/><path d="M145.89,67V57.81h9.18c2,3.07,1.81,6.2.23,9.37C152.13,68.82,149,69,145.89,67Z"/><path d="M63.31,76.16H54.14V67c2.94-1.94,6-1.7,9.07-.43,2.08,2.85,1.64,5.9.69,9Z"/><path d="M63.31,85.33V76.16c3.06-2,6.15-1.82,9.26-.15a9,9,0,0,1,.07,9.4A8.4,8.4,0,0,1,63.31,85.33Z"/><path d="M17.43,94.51H8.52c-.54-1.39-.19-2.9-.25-4.36s0-3,0-4.82h9.17A8,8,0,0,1,17.43,94.51Z"/><path d="M191.77,122h8.91c.55,1.39.2,2.9.25,4.36s0,3,0,4.82h-9.17A8,8,0,0,1,191.77,122Z"/><path d="M35.78,140.39v-9.18H45c2,3.06,1.83,6.16.13,9.28A8.46,8.46,0,0,1,35.78,140.39Z"/><path d="M164.24,85.33v9.18h-9.17c-2-3.08-1.81-6.21-.23-9.38C158,83.49,161.15,83.33,164.24,85.33Z"/><path d="M45,158.74v8.91c-1.39.54-2.9.19-4.36.25s-3,0-4.82,0v-9.17A8,8,0,0,1,45,158.74Z"/><path d="M136.72,167.91h-9.18v-9.17c2.94-1.94,6-1.71,9.08-.44,2.08,2.86,1.64,5.9.68,9Z"/><path d="M81.66,177.09H72.75c-.54-1.39-.2-2.9-.25-4.36s0-3,0-4.82h9.17A8,8,0,0,1,81.66,177.09Z"/><path d="M145.89,167.91v9.18h-9.17v-9.18A8,8,0,0,1,145.89,167.91Z"/><path d="M90.84,149.56H81.66v-9.17H72.49c-1.92-2.82-1.5-5.8-.62-8.81a2.72,2.72,0,0,1,1.22-1.13A126.47,126.47,0,0,1,99,130.28a3.62,3.62,0,0,1,1.31.8,6.56,6.56,0,0,1,1,3.86c.07,2.32.53,4.19,3.49,4.13,2.7-.06,3.11-1.8,3.21-3.94.08-1.63,0-3.36,1.56-4.51,3-1,6-1.29,8.92.42,2,2.89,1.17,6.16,1.27,9.3-.11,3.12.8,6.39-1.34,9.22h-9.17c-2.81,2.12-6.07,1.21-9.17,1.33C96.91,150.78,93.65,151.68,90.84,149.56Z" class="cls-2"/><path d="M90.84,167.91v-9.17c2.81-2.12,6.06-1.21,9.17-1.34,3.11.11,6.36-.78,9.18,1.34v9.17c-.35.3-.74.77-1.12.74-6-.48-7.25,3.31-7.46,8.11a2.5,2.5,0,0,1-1.14,1c-3,.74-5.9,1.22-8.63-.71A8,8,0,0,1,90.84,167.91Z" class="cls-1"/><path d="M136.72,158.74h-9.18v-9.18c-1.91-2.75-1.43-5.69-.7-8.66a2.65,2.65,0,0,1,1.16-1.18c3.06-.81,6.1-1.27,8.95.68,1.76,2.9,1,6.1,1.1,9.2C137.87,152.68,138.93,156,136.72,158.74Z" class="cls-1"/><path d="M127.54,140.39v9.17h-9.18v-9.17A7.92,7.92,0,0,1,127.54,140.39Z" class="cls-3"/><path d="M109.19,158.74H100a8,8,0,0,1,0-9.18h9.18Z" class="cls-4"/><path d="M100,177.09v-9.18h9.18v9.18A7.93,7.93,0,0,1,100,177.09Z" class="cls-5"/><path d="M100,177.09h9.18v9.17H100A7.92,7.92,0,0,1,100,177.09Z" class="cls-1"/><path d="M72.49,85.33V76.16l.49-.51a2.49,2.49,0,0,1,1.26-.48c4.43.28,6.83-1.46,6.42-6.22a3,3,0,0,1,1-2h9.18a2.89,2.89,0,0,1,.94,1.52c1.52,6.31,1.52,6.31,8,6.38l1.35,0c6.06,0,6.06,0,7.08-6.13a4.11,4.11,0,0,1,.48-1.26l.52-.49h18.35v9.18c.29.34.76.71.73,1.1-.35,5.65,2.88,7.43,7.87,7.35a2.65,2.65,0,0,1,1.07.89c-.07,5.54,2.38,8.64,8.2,8.5l.48.51v9.17c-4.13,1.89-7,4.89-9.24,9.62a10.13,10.13,0,0,1-9-.16c-2.12-2.67-1.28-5.8-1.38-8.79,0-7.75,0-7.75-7.35-9.13a2.53,2.53,0,0,1-1-.92c-.8-1.52-.65-3.21-.79-4.84-.19-2.06-1.38-2.82-3.32-2.81s-3,.89-3.23,2.92.2,4-1.5,5.46c-2.79,1.27-5.74.77-8.64.78s-5.9.33-8.78-.5A2.42,2.42,0,0,1,90,93.6c-1.42-7-1.42-7-8.49-7-2.84-.09-5.73.46-8.47-.72Z" class="cls-6"/><path d="M155.07,85.33v9.18h-9.18c-2.12-2.82-1.21-6.07-1.33-9.17.11-3.11-.79-6.37,1.33-9.18V67h9.18a7.92,7.92,0,0,1,9.17,0v9.18A18.33,18.33,0,0,0,155.07,85.33Z" class="cls-1"/><path d="M136.72,112.86v-9.18h9.17v9.18a8.28,8.28,0,0,1,0,9.42,4.26,4.26,0,0,1-1.2.66c-2.87.64-6.12,1.41-8.11-1.13S134.75,115.81,136.72,112.86Z" class="cls-3"/><path d="M145.89,122v-9.17h18.35c1.91,2.72,1.41,5.64.74,8.58a2.58,2.58,0,0,1-1.07,1.19c-2.85,1.11-5.83.61-8.76.69-2.9-.12-5.87.48-8.68-.73C146.27,122.41,146.08,122.22,145.89,122Z" class="cls-7"/><path d="M164.24,122v-9.17h9.18V122A7.87,7.87,0,0,1,164.24,122Z" class="cls-1"/><path d="M164.24,67h-9.17V57.81h18.35V67Z" class="cls-7"/><ellipse cx="168.83" cy="126.62" class="cls-5" rx="7.44" ry="5.83"/><path d="M173.42,131.21V122h9.17a8,8,0,0,1,0,9.18Z" class="cls-1"/><circle cx="187.18" cy="126.62" r="6.49" class="cls-7"/><path d="M155.07,140.39h-9.18l-.52-.54a13.08,13.08,0,0,1-.15-8.16,2.49,2.49,0,0,1,1-1.09,12.58,12.58,0,0,1,8.26.07l.55.54Z" class="cls-8"/><path d="M164.24,122v9.18h-9.17a8,8,0,0,1,0-9.18Z" class="cls-1"/><path d="M109.19,11.93V21.1h9.17v9.18c-.34.29-.73.77-1.12.74-5.95-.48-7.25,3.29-7.45,8.1a2.58,2.58,0,0,1-1.13,1c-2.91,1-5.92.53-8.89.6s-6.2.76-8.93-1.31V30.28H100V11.93Z" class="cls-7"/><path d="M109.19,39.45V30.28h9.17v9.17A7.9,7.9,0,0,1,109.19,39.45Z" class="cls-1"/><path d="M109.19,39.45h9.17v9.18h-9.17A7.93,7.93,0,0,1,109.19,39.45Z" class="cls-5"/><path d="M136.72,158.74v-9.18a8,8,0,0,1,9.17,0v18.35h-9.17Z" class="cls-7"/><path d="M100,131.21H72.49c-2-2.72-1.37-5.66-.74-8.6a2.55,2.55,0,0,1,1-1.14c7.62-1.83,7.62-1.83,7.62-8.49,0-7.93,0-7.93-7.89-8a14,14,0,0,1-2.24,0c-3.82-.47-6.09.73-5.76,5a3.22,3.22,0,0,1-1.16,2.8H54.14v-9.18a8,8,0,0,1,0-9.17h9.17V85.33h9.18a9.9,9.9,0,0,1,.77,1.14c1.1,2-.5,4.94,2,6.24,2.07,1.08,4.52.31,6.8.48,3,.06,6.11-.72,8.81,1.32,2.09,2.77,1.22,6,1.32,9s.12,6,0,9a22.79,22.79,0,0,1,0,2.74c-.51,3.8.87,5.83,5,5.61a4,4,0,0,1,3.28,1.38C101.64,125.3,102.08,128.31,100,131.21Z" class="cls-6"/><path d="M63.31,112.86v-9.18h9.18a25.47,25.47,0,0,1,0,18.35,8,8,0,0,1-9.18,0Z" class="cls-7"/><path d="M45,140.39v-9.18h9.18c1.89,2.65,1.36,5.53.79,8.41a2.8,2.8,0,0,1-1,1.24,11.83,11.83,0,0,1-8.45.07Z" class="cls-1"/><path d="M54.14,140.39v-9.18h9.17c.19.2.37.4.56.59,1,2.94,1.32,5.84-.56,8.59A7.92,7.92,0,0,1,54.14,140.39Z" class="cls-5"/><path d="M63.31,122h9.18v9.18a8,8,0,0,1-9.18,0Z" class="cls-2"/><path d="M63.31,67H54.14V39.45h9.17v9.18h9.18v9.18A19.41,19.41,0,0,0,63.31,67Z" class="cls-1"/><path d="M45,103.68H35.78V94.51a8,8,0,0,1,0-9.18H45v9.18A8,8,0,0,1,45,103.68Z" class="cls-1"/><path d="M17.43,94.51V85.33h9.18a8,8,0,0,1,0,9.18Z" class="cls-1"/><circle cx="31.2" cy="89.92" r="6.49" class="cls-5"/><path d="M100,177.09v18.35H90.84V177.09Z" class="cls-7"/><path d="M100,76.16H90.84V57.81l.59-.57c2.88-1.22,5.92-.6,8.89-.74,3,.08,6.15-.75,8.87,1.31V67A18.41,18.41,0,0,0,100,76.16Z" class="cls-7"/><path d="M63.31,67V57.81h9.18V67a8,8,0,0,1,0,9.18H63.31Z" class="cls-5"/><path d="M81.66,48.63h9.18c.18.2.37.4.56.59,1,2.94,1.31,5.84-.56,8.59H81.66Z" class="cls-8"/><path d="M72.49,76.16V67h9.17v9.18Z" class="cls-9"/><path d="M109.19,57.81H100C97.9,55,98.8,51.74,98.68,48.64c.11-3.11-.79-6.37,1.33-9.19h9.18V57.81Z" class="cls-1"/><circle cx="49.55" cy="99.1" r="6.49" class="cls-3"/><path d="M100,39.45v9.18a8,8,0,0,1-9.17,0V39.45Z" class="cls-5"/><path d="M136.72,85.33h-9.18V76.16h9.18A7.92,7.92,0,0,1,136.72,85.33Z" class="cls-3"/><path d="M136.72,85.33V76.16h9.17v9.17A8,8,0,0,1,136.72,85.33Z" class="cls-7"/><path d="M45,158.74H35.78v-9.18a7.93,7.93,0,0,1,9.18,0Z" class="cls-5"/><path d="M45,149.56H35.78v-9.17H45A8,8,0,0,1,45,149.56Z" class="cls-1"/><circle cx="67.9" cy="135.8" r="6.49" class="cls-4"/><path d="M54.14,140.39h9.17v9.17H54.14A8,8,0,0,1,54.14,140.39Z" class="cls-1"/><path d="M155.07,85.33V76.16h9.17v9.17Z" class="cls-7"/><path d="M145.89,149.56h-9.17v-9.17l.59-.56c2.94-1,5.83-1.32,8.58.56Z" class="cls-3"/><circle cx="49.55" cy="144.97" r="6.49" class="cls-5"/><circle cx="95.43" cy="154.15" r="6.49" class="cls-3"/><circle cx="86.25" cy="172.5" r="6.49" class="cls-7"/><path d="M100,131.21V122c.2-.18.4-.36.59-.55,2.86-1.22,5.86-.61,8.81-.74,3,.07,6.08-.62,8.89,1,2,2.81,1.62,5.8.64,8.84-.19.2-.38.41-.58.61h-9.17A8,8,0,0,1,100,131.21Z" class="cls-7"/><path d="M100,131.21h9.18v8.91c-1.39.55-2.9.2-4.36.25s-3,0-4.82,0Z" class="cls-4"/><path d="M127.54,140.39h-9.18v-9.18c3.08-2,6.21-1.81,9.38-.23C129.38,134.15,129.54,137.29,127.54,140.39Z" class="cls-4"/><path d="M127.54,140.39v-9.18c3.07-2.05,6.21-1.78,9.37-.23,1.65,3.17,1.8,6.31-.19,9.41Z" class="cls-3"/><path d="M90.84,112.86v-9.18A18.29,18.29,0,0,0,100,94.51h9.18a8,8,0,0,1,9.17,0,18.35,18.35,0,0,0,9.18,9.17v9.18l-.59.56c-2.86,1.22-5.87.61-8.82.74s-6,.08-9,0c-3.06.11-6.12.1-9.19,0S93.63,115,90.84,112.86Z" class="cls-7"/><path d="M136.72,131.21H118.36V122c.17-.16.34-.33.5-.5a2.49,2.49,0,0,1,1.25-.48c4.44.28,6.84-1.47,6.43-6.22a2.89,2.89,0,0,1,1-2h9.18V122h9.17a8,8,0,0,1,0,9.18A8,8,0,0,1,136.72,131.21Z" class="cls-2"/><circle cx="104.6" cy="71.57" r="6.49" class="cls-9"/><path d="M100,94.51v9.17H90.84V94.51Z" class="cls-4"/><circle cx="122.95" cy="99.1" r="6.49" class="cls-4"/><path d="M136.72,85.33h9.17v9.18h-9.17Z" class="cls-3"/><path d="M90.84,94.51H81.66a8,8,0,0,1,0-9.18h9.18Z" class="cls-2"/><path d="M118.36,94.51h-9.17V85.6c1.39-.55,2.9-.2,4.36-.25s3,0,4.81,0Z" class="cls-4"/><path d="M81.66,85.33v9.18H72.49V85.33Z" class="cls-7"/><circle cx="150.48" cy="126.62" r="6.49"/><circle cx="141.3" cy="135.8" r="6.49"/><path d="M72.49,122V103.68h9c.36,6,0,12,.19,18.35Z" class="cls-2"/><path d="M90.84,112.86H100a8,8,0,0,1,0,9.17H90.84Z"/><circle cx="95.43" cy="53.22" r="6.49"/><path d="M100,122v-9.17h9.18a8,8,0,0,1,0,9.17Z" class="cls-10"/><path d="M109.19,122v-9.17h9.17a8,8,0,0,1,0,9.17Z"/><path d="M118.36,122v-9.17h9.18V122Z" class="cls-4"/></svg>