<svg xmlns="http://www.w3.org/2000/svg" viewBox="0 0 64 64" width="100px" height="100px"><rect width="50" height="50" x="7" y="7" fill="#f9e3ae" rx="2" ry="2"/><path fill="#f6d397" d="M11,32H53a4,4,0,0,1,4,4V54a3,3,0,0,1-3,3H10a3,3,0,0,1-3-3V36a4,4,0,0,1,4-4Z"/><rect width="38" height="38" x="13" y="13" fill="#d18b6b" rx="2" ry="2"/><path fill="#8d6c9f" d="M50,12H14a2,2,0,0,0-2,2V50a2,2,0,0,0,2,2h3a1,1,0,0,0,0-2H14V14H50V50H47a1,1,0,0,0,0,2h3a2,2,0,0,0,2-2V14A2,2,0,0,0,50,12Z"/><path fill="#8d6c9f" d="M55,6H9A3,3,0,0,0,6,9V55a3,3,0,0,0,3,3H55a3,3,0,0,0,3-3V9A3,3,0,0,0,55,6Zm1,49a1,1,0,0,1-1,1H9a1,1,0,0,1-1-1V9A1,1,0,0,1,9,8H55a1,1,0,0,1,1,1Z"/><path fill="#8d6c9f" d="M27 48a1 1 0 0 0-1 1v2a1 1 0 0 0 2 0V49A1 1 0 0 0 27 48zM32 48a1 1 0 0 0-1 1v2a1 1 0 0 0 2 0V49A1 1 0 0 0 32 48zM37 48a1 1 0 0 0-1 1v2a1 1 0 0 0 2 0V49A1 1 0 0 0 37 48zM42 48a1 1 0 0 0-1 1v2a1 1 0 0 0 2 0V49A1 1 0 0 0 42 48zM22 48a1 1 0 0 0-1 1v2a1 1 0 0 0 2 0V49A1 1 0 0 0 22 48z"/><path fill="#faefde" d="M39 29a1 1 0 0 0-1 1V41a1 1 0 0 0 2 0V30A1 1 0 0 0 39 29zM29.36 22.71a1 1 0 0 0-1.92 0l-5.4 18a1 1 0 0 0 1.92.57L25.54 36h5.71l1.59 5.29a1 1 0 0 0 1 .71 1 1 0 0 0 .29 0 1 1 0 0 0 .67-1.25zM26.14 34l2.26-7.52L30.66 34zM39 23.5A1.5 1.5 0 1 0 39 26.5 1.5 1.5 0 1 0 39 23.5z"/></svg>