<svg xmlns="http://www.w3.org/2000/svg" viewBox="0 0 64 64" width="100px" height="100px"><path fill="#acb7d0" d="M60.462,25.978L54.301,3.609L31.542,9.517l-0.201,0.053l-3.563,6.099L20.6,15.614L3.769,32 l16.83,16.333l7.18-0.056l3.563,6.101l22.959,6.012l6.16-22.314l-3.619-6.049L60.462,25.978z M51.717,49.612 c-0.055,0.191-0.219,0.332-0.408,0.356c-0.199,0.031-0.4-0.067-0.502-0.24l-10.404-17.5c-0.094-0.157-0.094-0.353,0-0.51 l10.404-17.501c0.092-0.154,0.258-0.244,0.436-0.244c0.02,0,0.038,0.001,0.058,0.003c0.198,0.025,0.362,0.166,0.417,0.358 l5.056,17.639L51.717,49.612z M27.826,15.675l18.22-4.567c0.196-0.05,0.401,0.022,0.522,0.186s0.133,0.38,0.029,0.554 L36.192,29.348c-0.089,0.15-0.253,0.244-0.429,0.244H14.955c-0.203,0-0.385-0.122-0.463-0.311 c-0.077-0.188-0.033-0.402,0.111-0.546L27.826,15.675z M14.655,35.155c-0.145-0.143-0.188-0.356-0.11-0.545 c0.078-0.188,0.26-0.31,0.463-0.31h20.809c0.176,0,0.34,0.094,0.43,0.245L46.65,52.047c0.104,0.174,0.093,0.391-0.028,0.553 c-0.121,0.163-0.327,0.235-0.522,0.187l-18.273-4.568L14.655,35.155z"/><path fill="#8d6c9f" d="M54.652,61.999c-0.084,0-0.17-0.011-0.254-0.032l-23.637-6.19c-0.257-0.067-0.477-0.234-0.61-0.463 l-3.229-5.529l-6.517,0.05c-0.003,0-0.005,0-0.008,0c-0.26,0-0.51-0.102-0.696-0.282L2.355,32.718 c-0.194-0.188-0.304-0.447-0.304-0.717c0-0.271,0.108-0.529,0.303-0.718L19.7,14.396c0.188-0.183,0.455-0.306,0.705-0.283 l6.517,0.049l3.229-5.529c0.134-0.229,0.354-0.396,0.612-0.463L54.4,2.033c0.522-0.139,1.069,0.175,1.215,0.702l6.349,23.05 c0.072,0.264,0.034,0.545-0.105,0.779l-3.269,5.462l3.269,5.462c0.14,0.234,0.179,0.517,0.105,0.779l-6.349,22.997 C55.493,61.708,55.091,61.999,54.652,61.999z M31.669,53.946l22.281,5.835l5.972-21.633l-2.975-4.972l-4.75,16.572 c-0.109,0.384-0.437,0.665-0.833,0.717c-0.402,0.045-0.784-0.139-0.987-0.481l-10.404-17.5c-0.188-0.314-0.188-0.707,0-1.021 l10.404-17.501c0.203-0.342,0.585-0.525,0.987-0.481c0.396,0.052,0.724,0.333,0.833,0.717l4.771,16.645l2.955-4.938L53.949,4.217 l-22.281,5.784l-2.871,4.915l17.128-4.294c0.395-0.099,0.804,0.049,1.045,0.372c0.241,0.324,0.265,0.762,0.058,1.108l-10.404,17.5 c-0.18,0.304-0.507,0.489-0.859,0.489H14.955c-0.405,0-0.771-0.245-0.925-0.62s-0.066-0.807,0.222-1.092l12.372-12.221 l-5.823-0.043L4.486,31.999L20.8,47.831l5.881-0.045L14.304,35.511c-0.288-0.285-0.375-0.716-0.221-1.091s0.52-0.619,0.925-0.619 h20.809c0.353,0,0.68,0.186,0.859,0.489L47.08,51.791c0.206,0.347,0.184,0.784-0.057,1.107c-0.242,0.325-0.654,0.473-1.045,0.373 L28.76,48.967L31.669,53.946z M28.589,46.862l15.546,3.887l-8.888-14.948H17.437L28.589,46.862z M41.995,31.974l8.918,14.999 l4.299-14.999l-4.299-15L41.995,31.974z M17.391,28.092h17.804l8.886-14.945L28.589,17.03L17.391,28.092z"/><path fill="#8d6c9f" d="M5.216,25.664C4.83,26.051,4.2,26.048,3.809,25.657l-1.414-1.414 c-0.39-0.391-0.394-1.021-0.007-1.407c0.387-0.387,1.017-0.383,1.407,0.007l1.414,1.414C5.6,24.648,5.603,25.278,5.216,25.664z"/><path fill="#8d6c9f" d="M8.716,22.164C8.33,22.551,7.7,22.548,7.309,22.157l-1.414-1.414 c-0.39-0.391-0.394-1.021-0.007-1.407c0.387-0.387,1.017-0.383,1.407,0.007l1.414,1.414C9.1,21.148,9.103,21.778,8.716,22.164z"/><g><path fill="#8d6c9f" d="M12.216,18.664c-0.387,0.387-1.017,0.383-1.407-0.007l-1.414-1.414 c-0.39-0.391-0.394-1.021-0.007-1.407c0.387-0.387,1.017-0.383,1.407,0.007l1.414,1.414C12.6,17.648,12.603,18.278,12.216,18.664 z"/><path fill="#8d6c9f" d="M15.716,15.164c-0.387,0.387-1.017,0.383-1.407-0.007l-1.414-1.414 c-0.39-0.391-0.394-1.021-0.007-1.407c0.387-0.387,1.017-0.383,1.407,0.007l1.414,1.414C16.1,14.148,16.103,14.778,15.716,15.164 z"/></g><g><path fill="#8d6c9f" d="M2.388,41.164c-0.387-0.387-0.383-1.017,0.007-1.407l1.414-1.414 c0.391-0.39,1.021-0.394,1.407-0.007c0.387,0.387,0.383,1.017-0.007,1.407l-1.414,1.414C3.405,41.548,2.775,41.551,2.388,41.164z"/><path fill="#8d6c9f" d="M5.888,44.664c-0.387-0.387-0.383-1.017,0.007-1.407l1.414-1.414 c0.391-0.39,1.021-0.394,1.407-0.007c0.387,0.387,0.383,1.017-0.007,1.407l-1.414,1.414C6.905,45.048,6.275,45.051,5.888,44.664z"/><g><path fill="#8d6c9f" d="M9.388,48.164c-0.387-0.387-0.383-1.017,0.007-1.407l1.414-1.414 c0.391-0.39,1.021-0.394,1.407-0.007c0.387,0.387,0.383,1.017-0.007,1.407l-1.414,1.414C10.405,48.548,9.775,48.551,9.388,48.164 z"/><path fill="#8d6c9f" d="M12.888,51.664c-0.387-0.387-0.383-1.017,0.007-1.407l1.414-1.414 c0.391-0.391,1.021-0.394,1.407-0.007s0.383,1.017-0.007,1.407l-1.414,1.414C13.905,52.048,13.275,52.051,12.888,51.664z"/></g></g></svg>