<svg xmlns="http://www.w3.org/2000/svg" version="1.1" x="0px" y="0px" viewBox="0 0 64 64"
     style="enable-background:new 0 0 64 64;" xml:space="preserve"><g><path d="M49,48c1.654,0,3-1.346,3-3s-1.346-3-3-3s-3,1.346-3,3S47.346,48,49,48z M49,44c0.551,0,1,0.448,1,1s-0.449,1-1,1   s-1-0.448-1-1S48.449,44,49,44z"/><path
        d="M59.16,40.778c-0.303-0.726-0.142-1.551,0.409-2.103l1.455-1.456l-4.244-4.244l-1.457,1.456   c-0.551,0.552-1.377,0.712-2.141,0.392C52.464,34.527,52,33.833,52,33.055V31h-2.051c-0.091-1.613-0.39-3.172-0.886-4.649   l11.572-11.572C62.16,13.254,63,11.227,63,9.071C63,4.621,59.379,1,54.929,1c-2.156,0-4.183,0.84-5.707,2.364l-11.56,11.561   c-1.495-0.502-3.08-0.794-4.717-0.881C31.565,11.633,28.972,10,26,10c-0.761,0-1.495,0.114-2.194,0.313C22.08,7.068,18.727,5,15,5   C9.486,5,5,9.486,5,15c0,0.766,0.094,1.52,0.265,2.258C2.8,18.004,1,20.295,1,23c0,3.309,2.691,6,6,6h7.254   C14.088,29.989,14,30.993,14,32c0,2.201,0.407,3.992,1.064,5.522l-8.921,8.922L1.179,59.35C1.06,59.658,1,59.982,1,60.313   C1,61.795,2.206,63,3.687,63c0.331,0,0.655-0.061,0.964-0.179l12.906-4.964l6.523-6.524C24.031,51.548,24,51.77,24,52   c0,0.771,0.301,1.468,0.78,2c-0.48,0.532-0.78,1.229-0.78,2c0,1.39,0.955,2.552,2.24,2.89C27.092,61.33,29.374,63,32,63   c2.626,0,4.908-1.67,5.76-4.11C39.045,58.552,40,57.39,40,56c0-0.075-0.017-0.145-0.022-0.218l1.242,1.242l1.457-1.456   c0.551-0.552,1.374-0.713,2.14-0.394C45.535,55.473,46,56.167,46,56.945V59h6v-2.055c0-0.778,0.465-1.473,1.222-1.786   c0.726-0.302,1.551-0.143,2.102,0.409l1.456,1.456l4.244-4.244l-1.455-1.456c-0.551-0.552-0.712-1.377-0.393-2.141   C59.473,48.465,60.167,48,60.945,48H63v-6h-2.055C60.167,42,59.473,41.535,59.16,40.778z M44.176,43.726   c1.091-1.065,2.184-2.153,3.127-3.411C47.847,40.117,48.413,40,49,40c2.757,0,5,2.243,5,5s-2.243,5-5,5s-5-2.243-5-5   C44,44.567,44.067,44.141,44.176,43.726z M45.377,20.038L50,15.414L53.586,19l-5.341,5.341   C47.496,22.769,46.528,21.323,45.377,20.038z M46.414,9L48,7.414L56.586,16L55,17.586L46.414,9z M54.929,3   C58.276,3,61,5.724,61,9.071c0,1.621-0.631,3.146-1.778,4.293L58,14.586L49.414,6l1.222-1.222C51.783,3.632,53.307,3,54.929,3z    M45,10.414L48.586,14l-4.621,4.621c-1.284-1.152-2.729-2.121-4.301-2.871L45,10.414z M48,32c0,5.203-2.62,7.759-5.394,10.464   c-1.91,1.863-3.872,3.789-5.014,6.596C37.401,49.021,37.203,49,37,49h-4v-5c0-1.654-1.346-3-3-3h-2c-0.551,0-1-0.448-1-1   s0.449-1,1-1h10c1.654,0,3-1.346,3-3s-1.346-3-3-3h-8c-0.551,0-1-0.448-1-1v-3h5c2.757,0,5-2.243,5-5s-2.243-5-5-5   c-0.028,0-0.054,0.008-0.082,0.008C33.961,18.674,34,18.34,34,18c0-0.654-0.088-1.287-0.236-1.896C41.736,16.992,48,23.834,48,32z    M26,52c0-0.552,0.449-1,1-1h10c0.551,0,1,0.448,1,1s-0.449,1-1,1H27C26.449,53,26,52.552,26,52z M13.414,52l7.351-7.351   c1.23,1.22,2.372,2.454,3.214,3.957L17,55.586L13.414,52z M3,23c0-2.206,1.794-4,4-4s4,1.794,4,4h2   c0-3.222-2.555-5.852-5.744-5.987C7.086,16.359,7,15.684,7,15c0-4.411,3.589-8,8-8c2.925,0,5.565,1.59,6.969,4.101   c-2.132,1.251-3.638,3.454-3.919,6.025C16.304,17.556,15,19.123,15,21h2c0-1.103,0.897-2,2-2s2,0.897,2,2h2   c0-1.835-1.248-3.368-2.935-3.838C20.475,14.25,22.976,12,26,12c3.309,0,6,2.691,6,6c0,0.526-0.086,1.041-0.22,1.543   C30.14,20.364,29,22.044,29,24h2c0-1.654,1.346-3,3-3s3,1.346,3,3s-1.346,3-3,3H7C4.794,27,3,25.206,3,23z M27,29v3   c0,1.654,1.346,3,3,3h8c0.551,0,1,0.448,1,1s-0.449,1-1,1H28c-1.654,0-3,1.346-3,3s1.346,3,3,3h2c0.551,0,1,0.448,1,1v5h-4   c-0.203,0-0.401,0.021-0.592,0.06c-1.142-2.807-3.104-4.733-5.014-6.596C18.62,39.759,16,37.203,16,32c0-1.011,0.121-2.013,0.308-3   H27z M19.337,43.249L12,50.586L8.414,47l7.63-7.63C16.983,40.844,18.147,42.074,19.337,43.249z M7.381,48.795l7.824,7.824   l-6.624,2.548l-3.748-3.748L7.381,48.795z M3.934,60.954C3.501,61.122,3,60.777,3,60.313c0-0.085,0.016-0.168,0.045-0.246   l1.002-2.606l2.491,2.491L3.934,60.954z M32,61c-1.477,0-2.794-0.786-3.524-2h7.048C34.794,60.214,33.477,61,32,61z M37,57H27   c-0.551,0-1-0.448-1-1s0.449-1,1-1h10c0.551,0,1,0.448,1,1S37.551,57,37,57z M61,46h-0.055c-1.591,0-3.011,0.95-3.631,2.452   c-0.616,1.477-0.286,3.159,0.84,4.286l0.042,0.042l-1.416,1.416l-0.042-0.042c-1.128-1.128-2.812-1.459-4.319-0.827   C50.95,53.935,50,55.354,50,56.945V57h-2v-0.055c0-1.591-0.95-3.011-2.452-3.632c-1.479-0.617-3.161-0.286-4.287,0.841   l-0.042,0.042l-1.355-1.355C39.944,52.572,40,52.294,40,52c0-0.71-0.258-1.354-0.672-1.869c0.622-1.679,1.597-3.022,2.732-4.262   C42.49,49.319,45.435,52,49,52c3.86,0,7-3.141,7-7s-3.14-7-7-7c-0.098,0-0.193,0.01-0.29,0.014   c0.677-1.405,1.142-3.034,1.259-5.014H50v0.055c0,1.591,0.95,3.012,2.451,3.631c1.476,0.618,3.16,0.288,4.287-0.84l0.042-0.042   l1.416,1.416l-0.042,0.042c-1.126,1.127-1.456,2.81-0.827,4.318c0.607,1.47,2.027,2.42,3.618,2.42H61V46z"/></g>
</svg>