<svg xmlns="http://www.w3.org/2000/svg" viewBox="0 0 48 48" version="1.1"
     x="0px" y="0px">
    <title>Connected</title>
    <desc>Created with Sketch.</desc>
    <g stroke="none" stroke-width="1" fill="none" fill-rule="evenodd">
        <path d="M24.9987262,24.4154874 C26.4703086,25.0579591 27.5728054,26.3882082 27.8999819,28 L31.0829584,28 C31.5590365,25.1622867 34.0270037,23 37,23 C40.3137085,23 43,25.6862915 43,29 C43,32.3137085 40.3137085,35 37,35 C34.0270037,35 31.5590365,32.8377133 31.0829584,30 L27.8999819,30 C27.7499976,30.7388776 27.4370807,31.4185894 27.0003662,32 L28,32 C28.2652165,32 28.5195704,32.1053568 28.7071068,32.2928932 L34.4142136,38 L36,38 C36.5522847,38 37,38.4477153 37,39 C37,39.5522847 36.5522847,40 36,40 L34,40 C33.7347835,40 33.4804296,39.8946432 33.2928932,39.7071068 L27.5857864,34 L24,34 L24,38.5 C24,41.5375661 21.5375661,44 18.5,44 C15.4624339,44 13,41.5375661 13,38.5 C13,38.0156984 13.0625957,37.5460169 13.1801381,37.0986045 C10.765592,37.3234704 8.216905,36.0718429 6.8839746,33.7631397 C5.4640371,31.3037358 5.70653902,28.3518122 7.31973795,26.4077014 C5.63308157,25.4314341 4.5,23.3562512 4.5,21 C4.5,18.7949918 5.49228959,16.8361275 7.00194446,15.793659 C7.07423451,11.9614979 9.15477492,8.72760593 12.0012535,8.10727191 C12.0004194,8.07161565 12,8.0358568 12,8 C12,4.79443838 14.4795247,3 18,3 C20.6124377,3 22.8349158,4.66961525 23.6585886,7 L27,7 C27.2652165,7 27.5195704,7.10535684 27.7071068,7.29289322 L33.4142136,13 L36.1260175,13 C36.5700603,11.2747728 38.1361606,10 40,10 C42.209139,10 44,11.790861 44,14 C44,16.209139 42.209139,18 40,18 C38.1361606,18 36.5700603,16.7252272 36.1260175,15 L27,15 C26.4477153,15 26,14.5522847 26,14 C26,13.4477153 26.4477153,13 27,13 L30.5857864,13 L26.5857864,9 L24,9 L24,22.5857864 L26.2928932,20.2928932 C26.4804296,20.1053568 26.7347835,20 27,20 L32,20 C32.5522847,20 33,20.4477153 33,21 C33,21.5522847 32.5522847,22 32,22 L27.4142136,22 L24.9987262,24.4154874 Z M22,24.1000181 L22,20.9999997 C22,19.3431458 20.6568542,18 19,18 C18.4477153,18 18,17.5522847 18,17 C18,16.4477153 18.4477153,16 19,16 C20.1256059,16 21.1643395,16.3719448 22,16.9996338 L22,9 C22,6.790861 20.209139,5 18,5 C15.4704953,5 14,6.06420126 14,8 C14,9.38071187 15.1192881,10.5 16.5,10.5 C17.0522847,10.5 17.5,10.9477153 17.5,11.5 C17.5,12.0522847 17.0522847,12.5 16.5,12.5 C14.7531196,12.5 13.238723,11.5046184 12.4930438,10.0500886 C10.7971062,10.3862237 9.35360139,12.3801614 9.05610288,15 L10,15 C12.4520953,15 14.4919188,16.7651453 14.9181428,19.0941083 C15.7637097,19.2696177 16.551156,19.687195 17.1819805,20.3180195 C17.5725048,20.7085438 17.5725048,21.3417088 17.1819805,21.732233 C16.7914562,22.1227573 16.1582912,22.1227573 15.767767,21.732233 C15.2919164,21.2563825 14.6596796,21 14,21 C13.3403204,21 12.7080836,21.2563825 12.232233,21.732233 C11.8417088,22.1227573 11.2085438,22.1227573 10.8180195,21.732233 C10.4274952,21.3417088 10.4274952,20.7085438 10.8180195,20.3180195 C11.3972289,19.73881 12.1084787,19.339379 12.8755217,19.1420356 C12.5064521,17.9032482 11.3587085,17 10,17 L9.49999992,17 C7.8983608,17 6.5,18.747951 6.5,21 C6.5,23.252049 7.8983608,25 9.5,25 L10,25 C11.7818303,25 13.321781,26.0356093 14.0507852,27.5377608 C14.9232102,26.8969102 15.9693947,26.5 17,26.5 L18.668911,26.5 C19.3734578,25.2820485 20.5770045,24.388871 22,24.1000181 Z M18.0246876,28.5 L17,28.5 C16.0535883,28.5 14.954607,29.1644191 14.3554921,30.0572186 C14.1269849,30.3977394 14,31.1189721 14,32 C14,32.5522847 13.5522847,33 13,33 C12.4477153,33 12,32.5522847 12,32 C12,30.9329972 12.134478,30.0134315 12.491631,29.2939585 C12.3868579,28.0096321 11.3113351,27 10,27 L9.61588414,27 C7.89466555,28.1629032 7.41187224,30.6774853 8.6160254,32.7631397 C9.85550443,34.9099804 12.5835072,35.7404622 14.5,34.6339746 C14.5535314,34.6030682 14.6087326,34.5776737 14.6649463,34.557615 C15.6556902,33.5936782 17.0085146,33 18.5,33 C19.0522847,33 19.5,33.4477153 19.5,34 C19.5,34.5522847 19.0522847,35 18.5,35 C16.5670034,35 15,36.5670034 15,38.5 C15,40.4329966 16.5670034,42 18.5,42 C20.4329966,42 22,40.4329966 22,38.5 L22,33.8999819 C19.7177597,33.4367116 18,31.4189579 18,29 C18,28.8312503 18.0083597,28.6644531 18.0246876,28.5 Z M37,33 C39.209139,33 41,31.209139 41,29 C41,26.790861 39.209139,25 37,25 C34.790861,25 33,26.790861 33,29 C33,31.209139 34.790861,33 37,33 Z M23,32 C24.6568542,32 26,30.6568542 26,29 C26,27.3431458 24.6568542,26 23,26 C21.3431458,26 20,27.3431458 20,29 C20,30.6568542 21.3431458,32 23,32 Z M40,16 C41.1045695,16 42,15.1045695 42,14 C42,12.8954305 41.1045695,12 40,12 C38.8954305,12 38,12.8954305 38,14 C38,15.1045695 38.8954305,16 40,16 Z M40,38 L41,38 C41.5522847,38 42,38.4477153 42,39 C42,39.5522847 41.5522847,40 41,40 L40,40 C39.4477153,40 39,39.5522847 39,39 C39,38.4477153 39.4477153,38 40,38 Z M35,9 C33.3431458,9 32,7.65685425 32,6 C32,4.34314575 33.3431458,3 35,3 C36.6568542,3 38,4.34314575 38,6 C38,7.65685425 36.6568542,9 35,9 Z M35,7 C35.5522847,7 36,6.55228475 36,6 C36,5.44771525 35.5522847,5 35,5 C34.4477153,5 34,5.44771525 34,6 C34,6.55228475 34.4477153,7 35,7 Z M28,44 C26.3431458,44 25,42.6568542 25,41 C25,39.3431458 26.3431458,38 28,38 C29.6568542,38 31,39.3431458 31,41 C31,42.6568542 29.6568542,44 28,44 Z M28,42 C28.5522847,42 29,41.5522847 29,41 C29,40.4477153 28.5522847,40 28,40 C27.4477153,40 27,40.4477153 27,41 C27,41.5522847 27.4477153,42 28,42 Z M26,5 C25.4477153,5 25,4.55228475 25,4 C25,3.44771525 25.4477153,3 26,3 L29,3 C29.5522847,3 30,3.44771525 30,4 C30,4.55228475 29.5522847,5 29,5 L26,5 Z M37,32 C35.3431458,32 34,30.6568542 34,29 C34,27.3431458 35.3431458,26 37,26 C38.6568542,26 40,27.3431458 40,29 C40,30.6568542 38.6568542,32 37,32 Z M37,30 C37.5522847,30 38,29.5522847 38,29 C38,28.4477153 37.5522847,28 37,28 C36.4477153,28 36,28.4477153 36,29 C36,29.5522847 36.4477153,30 37,30 Z"
              fill="#000000" fill-rule="nonzero"/>
    </g>
</svg>