<svg xmlns="http://www.w3.org/2000/svg" viewBox="0 0 100 100" x="0px" y="0px">
    <defs>
        <style>.cls-1{fill:none;}</style>
    </defs>
    <title>Asset 832ldpi</title>
    <g data-name="Layer 2">
        <g data-name="Layer 1">
            <rect class="cls-1" width="100" height="100"/>
            <path d="M87.77,55.58c2.49-5.2,5.07-10.56,5.07-20,0-11.62-5-20.93-14.34-26.92C64.64-.19,45,.69,33.6,6,18.37,13.09,15.15,25.36,14.77,27.06,13,32.6,15,38.8,16.35,41.94,6.61,52.74,7.06,56.37,7.21,57.56a4.22,4.22,0,0,0,1.84,3,17.28,17.28,0,0,0,5.58,2.52l-.08,3.25a14.39,14.39,0,0,0,2.26,8.1l.66,1.05c-.27,6.31,1.45,16.29,9.62,17.55,3.93.6,10.07-1.39,16.55-4.58C46,93.84,61,98,72.14,98a32.63,32.63,0,0,0,5.44-.41c7.49-1.28,8.81-5.29,8.93-7.57.06-1.17-.38-2.63-1.31-5.55C84,80.7,82.17,75,82.68,71.25A47.1,47.1,0,0,1,87.77,55.58ZM80.35,86a34.56,34.56,0,0,1,1.08,3.73c-.09,1.62-2.44,2.4-4.4,2.77-10,1.87-26.13-2.86-28.51-5.75h0c1.47-1,3.63-2.69,6-4.56a84.42,84.42,0,0,0,12.3-9.65,2.69,2.69,0,0,0-3.6-4c-2.67,2.21-7.66,6.32-11.91,9.69C42.43,84,32.37,88.72,27.86,88c-6-.92-5.27-12.88-5.26-13l.06-.85L21.1,71.73a9.31,9.31,0,0,1-1.46-5.25l.13-5.54.09-2.09a.64.64,0,0,0-.7-.67l-2.08.16a9.45,9.45,0,0,1-4.79-1.72c.25-1.38,2.43-5.28,7.84-11.28A5,5,0,0,0,21,40c-.88-2.08-2.77-7.37-1.39-11.51l.08-.31c.1-.46,2.44-11.28,16-17.6,10.19-4.74,27.68-5.54,40,2.32,8,5.08,12,12.69,12,22.63,0,8.29-2.12,12.7-4.57,17.8a52.17,52.17,0,0,0-5.55,17.2C77,75.46,78.92,81.56,80.35,86Z"/>
            <path d="M66.47,25a1.86,1.86,0,0,0-2.63,2.64l6.71,6.7-6.71,6.71a1.87,1.87,0,0,0,0,2.63,1.87,1.87,0,0,0,2.63,0l8-8a2,2,0,0,0,0-2.74Z"/>
            <path d="M44.6,25A1.92,1.92,0,0,0,42,25l-8,8a1.91,1.91,0,0,0-.57,1.37A2,2,0,0,0,34,35.74l8,8a1.86,1.86,0,0,0,2.64-2.63l-6.71-6.71,6.71-6.7A1.88,1.88,0,0,0,44.6,25Z"/>
            <path d="M58.88,20.77a1.86,1.86,0,0,0-2.36,1.16L48.4,45.61A1.84,1.84,0,0,0,48.49,47a1.87,1.87,0,0,0,1.07.94,1.76,1.76,0,0,0,.6.1,1.85,1.85,0,0,0,1.76-1.26L60,23.13A1.86,1.86,0,0,0,58.88,20.77Z"/>
        </g>
    </g>
</svg>