<svg id="Layer_1" data-name="Layer 1" xmlns="http://www.w3.org/2000/svg" viewBox="0 0 1280 800"><title>logo</title><path d="M216.25,429.79a2.41,2.41,0,0,0,1.39-1.85c.93-3.44,1.84-6.9,2.93-10.3,1.29-4,3-7.91,4.09-12,1.69-6.43,4.44-12.51,6-19,1-4.23,2.83-8.26,4.21-12.41,1.07-3.22,2-6.48,3-9.73,2.77-9,5.94-17.89,8.76-26.87,1.75-5.59,4.11-11,5.61-16.62,2.17-8.16,5.45-15.95,7.91-24,.48-1.56.72-3.18,1.15-4.74a5.46,5.46,0,0,1,5.81-4.16,18.89,18.89,0,0,1,9.1,3c6.19,4.15,12.73,7.78,19.11,11.65a41.32,41.32,0,0,1,4,2.75,3.72,3.72,0,0,1,1.21,4.4,9.77,9.77,0,0,1-.75,1.8c-2.69,4.55-3.85,9.65-5.12,14.69-1.18,4.72-2.52,9.41-3.31,14.25-.65,4-2.26,7.78-2.88,11.75-.78,5-2.37,9.82-3.18,14.77-1.53,9.32-3.88,18.46-5.77,27.69-1.53,7.48-2.95,15-4.18,22.52-1.58,9.62-3.18,19.25-4.3,28.93-.93,8.07-2.52,16.07-2.68,24.23,0,1.79-.28,3.57-.46,5.36a68.12,68.12,0,0,0-.13,15.57c.46,3.53.31,7.13.47,10.7a6.74,6.74,0,0,0,.42,1.88,1,1,0,0,0,.76.15,7.58,7.58,0,0,0,1.21-2.06c1.8-6.06,4.28-11.91,5.52-18.14a17.81,17.81,0,0,1,.68-2.84c1.63-4.28,2.25-8.84,3.68-13.13,3.93-11.91,6.26-24.21,9.25-36.34,3.86-15.62,7.43-31.32,11.1-47,.34-1.42.54-2.88.85-4.31.41-1.94.83-3.75-1.13-5.31-1-.8-.61-2.1.17-3.08.29-.37.81-.57,1.09-1,1.89-2.59,4.11-5,3.86-8.63a9.4,9.4,0,0,1,.58-2.86c1.44-5.49,2.93-11,4.35-16.46a26.93,26.93,0,0,0,.45-3.38,4.46,4.46,0,0,1,4.48-4.08,15.37,15.37,0,0,1,10.09,2.83,82,82,0,0,0,11.8,6.81,138,138,0,0,1,12,7.31,3.24,3.24,0,0,1,1.27,4.27c-1.64,4.12-2.24,8.48-3.25,12.75a31.59,31.59,0,0,0-.8,4.3c-.62,6.82-2,13.51-3.24,20.23-1.35,7.35-2.29,14.77-3.47,22.15-1.85,11.56-3.82,23.1-5.61,34.67-.64,4.17-.89,8.41-1.37,12.61-.6,5.32-1.32,10.64-1.88,16-.36,3.52-.52,7.06-.77,10.56,1.12.26,1.26-.46,1.5-1a158,158,0,0,0,7.39-19.6c4.11-13.2,8.23-26.39,12.25-39.62,3-9.79,5.77-19.63,8.67-29.45,1.57-5.3,3.21-10.58,4.79-15.87,3.07-10.29,6.27-20.53,9.12-30.87,2.51-9.09,4.55-18.31,6.91-27.44,1.33-5.18,2.84-10.32,4.39-15.44a11.37,11.37,0,0,1,1.88-3.38c1.91-2.55,2.87-3.46,5.88-.9a3.35,3.35,0,0,0,2.68.73c2.17-.17,2.13-.09,3,1.8.53,1.15.9,3,2.17,2.95,1.76,0,1.78-2.08,2.15-3.37,1.25-4.37,2.86-8.62,4.25-12.92,2.29-7.07,5-14,7.52-21a38.72,38.72,0,0,0,1.91-9.55,16,16,0,0,1,1.79-6,23.73,23.73,0,0,0,2.78-8.27c.08-.64.46-1.34.3-1.9-.92-3.37.47-6.81-.42-10.19a7.48,7.48,0,0,1,.28-3.36,2.83,2.83,0,0,1,3.19-2.4c3.56.14,6.77.58,9.81,3.22,3.49,3,7.94,4.92,11.84,7.51,3.06,2,6.43,3.66,8.71,6.78,1.56,2.13,2.17,4,1.26,6.75-1.38,4.15-2.23,8.48-3.24,12.76-3.21,13.61-7,27-11,40.46-2.66,9-5.34,18.07-7.76,27.17-1.59,6-3.44,11.85-5,17.82-1,3.92-1.58,7.95-2.69,11.87-4.12,14.56-8.07,29.16-12,43.75-1.2,4.4-2.27,8.82-3.36,13.24a8.53,8.53,0,0,0-.29,2.4.73.73,0,0,0,1.11.56,12.62,12.62,0,0,0,3.76-3,19.52,19.52,0,0,1,2.05-2.14c1,.77,0,1.5.16,2.16a7.7,7.7,0,0,0,.31.84c2.46-.77,2.61,3.46,4.5,2.47,2.15-1.11,3.18-.69,4.19,1.14.07.13.27.18.4.27,1.19.82,2.19.64,2.8-.6.85-1.75,1.68-3.52,2.43-5.32,4.41-10.65,8.75-21.34,13.23-32,1.57-3.73,3.45-7.33,5.19-11,.48-1,1-2,1.43-3.09,3.48-8,6.88-16.12,10.42-24.13,3-6.7,6.18-13.27,9.06-20,.74-1.71,2.94-2.36,2.95-4.24a11.41,11.41,0,0,1,1.37-4.58,90.1,90.1,0,0,1,6.93-13.33c1-1.5.85-3.37,2-4.91,1.82-2.43,2.2-5.73,4.57-7.94.64-.6.76-1.77,1.07-2.7.21-.61.16-1.37.51-1.87,3-4.39,4.09-9.84,7.76-13.92,1.47-1.63,2.15-4,3.17-6,3-5.94,6.55-11.62,8.7-18a6.74,6.74,0,0,1,1.21-2.11c4.39-5.33,6.38-11.6,7.36-18.29.09-.64.25-1.28.31-1.93a1.67,1.67,0,0,1,2-1.6,10.19,10.19,0,0,1,6.34,2.18,12.06,12.06,0,0,0,3.42,1.8c1.41.56,2.59,1,4.11,0a2.94,2.94,0,0,1,4.31.72c.84,1.12,2.34,1,3.53,1.49s2.47.81,3.62,1.38a2.74,2.74,0,0,1,1.77,2.7c-.21,2.16.6,4.16.84,6.23.29,2.54,1.45,5.08.28,7.67.88,3.54-.57,7.15.18,10.64a9.07,9.07,0,0,1-1.62,7.35c-1.62,2.44-3.26,4.87-4.75,7.39a400.91,400.91,0,0,0-19.28,37.23A90.71,90.71,0,0,1,518.83,329a231,231,0,0,0-17.2,33.85c-.58,1.34-1.17,2.69-1.86,4-3.55,6.6-6.08,13.64-9.08,20.48-2.28,5.21-4.63,10.4-6.89,15.63q-3.58,8.26-7.05,16.59-5.34,12.83-10.57,25.7c-3.36,8.29-6.69,16.58-9.93,24.91-5.66,14.55-11.35,29.1-16.83,43.72-3.66,9.74-7,19.6-10.45,29.4-4.4,12.42-8.85,24.81-13.16,37.25-4.21,12.13-8.29,24.3-12.38,36.47-1.09,3.23-2,6.52-3,9.8a21.92,21.92,0,0,0-1,4.77c-.3,5.83-2.57,11.05-4.88,16.25a15,15,0,0,1-1.92,2.8c-.77,1-1.66,2-2.39,3.07-1.6,2.35-2.64,3-5.19,2.12a101.71,101.71,0,0,1-9.49-3.76c-4-1.79-7.81-3.85-11.77-5.67a11.13,11.13,0,0,1-4.24-3.17,16.91,16.91,0,0,0-1.85-2.25c-1.58-1.39-1.78-2.83-.91-4.77a37.5,37.5,0,0,0,3.05-10.23,8.61,8.61,0,0,1,.37-1.41c1.28-3.85,1.3-3.87-2.62-5.39s-7.83-2.91-11.72-4.43c-1-.41-2-1.09-3-1.6-1.45-.74-2.85-1.88-4.37-2.07-2.83-.34-4.75-2.19-6.73-3.72a5.78,5.78,0,0,1-2.35-6.4c1.34-5,2.37-10.12,3.54-15.18a1.42,1.42,0,0,0,.12-.47c-.24-2.35,3.22-3.38,2.05-6.16-.88-2.1.73-4.06.93-6.16s1.38-4.34,1.76-6.57c.8-4.63,1.38-9.31,2-14A1.15,1.15,0,0,0,338.4,551a11.09,11.09,0,0,0-1.85.6c-4.19,1.86-8.47,1.8-12.91,1a50.88,50.88,0,0,1-13.81-4.48,26.52,26.52,0,0,0-2.69-1.15c-1-.35-2.05-.26-2.5.83-1.12,2.72-3.16,4.9-4.19,7.69a19.24,19.24,0,0,1-5.19,7,9.94,9.94,0,0,1-6.06,2.9,15.62,15.62,0,0,1-2.42.28c-3.68-.29-6.63,1.18-9.22,3.63-4.06,3.84-9.06,5.14-14.42,4.66a49.13,49.13,0,0,1-15.09-3.58,59.93,59.93,0,0,0-6.38-2.4c-3.18-.95-5.8-2.91-8.49-4.67a11.25,11.25,0,0,1-4.94-7c-.93-4.12-2.16-8.18-2.45-12.43a10.27,10.27,0,0,0-.21-1.93,1.85,1.85,0,0,0-.71-1.11c-.49-.25-.92.17-1.15.62-1.51,2.87-3,5.78-4.51,8.63a69.8,69.8,0,0,1-14.66,18.13c-3.23,3-7.1,4.51-11.67,2.45-1.83-.82-2.73-.33-3.55,1.42a48,48,0,0,0-2.15,5.44,59.31,59.31,0,0,1-10.26,19.23c-1.65,2-3.16,4.14-4.65,6.27a11.75,11.75,0,0,1-5.35,4c-6.59,2.85-13.38,2.45-20.13,1.25-4.62-.82-9.1-2.35-13.67-3.5a19.89,19.89,0,0,1-5.3-2.42,11.45,11.45,0,0,1-4.45-5,38.49,38.49,0,0,1-3-9.23c-1.21-5.56-2.81-11-3.79-16.63-1.83-10.41-3.61-20.84-3.75-31.47,0-1.94-.49-3.87-.67-5.81-1-9.87-1.82-19.75-2.86-29.62-.31-2.93,0-5.89-.41-8.75-.91-6.14-.6-12.35-1.36-18.48-.72-5.82-1.06-11.66-1.2-17.52,0-1.09.21-2.25-.57-3.22-.88.13-.9.89-1,1.47-2.2,9.66-4.27,19.36-6.58,29-3.49,14.55-6,29.31-10,43.73a17.68,17.68,0,0,0-.46,2.39,1.56,1.56,0,0,0,1.13,1.83c2.75,1.19,5.24,3,8.44,3,1,0,1.46,1.5.67,2.25s-1.75,1.43-2.61,2.17-2.2,1.58-2.52,2.9c-.64,2.58-2.57,3-4.78,3.3-1.44.2-3-1-4.23.14s-1.38,2.88-1.83,4.43c-1,3.43-1.88,6.91-3.07,10.28a110.28,110.28,0,0,1-7.59,16.36c-.78,1.42-1.75,2.74-2.45,4.2a7.75,7.75,0,0,1-5.13,4.2,24.21,24.21,0,0,1-15.3-.46c-3.47-1.32-7.11-2.44-10.27-4.33-3.4-2-7.25-3.66-9.51-7.3a4.26,4.26,0,0,1-.35-4.57c1.11-2.17,2.08-4.41,3.15-6.59.91-1.87,1.17-3.52-.24-5.44s-1.39-4-.85-6.44c.62-2.83,1.42-5.26,3.49-7.23A8.8,8.8,0,0,0,36,542.22c1.3-3.67,2.88-7.24,4.34-10.85a148.07,148.07,0,0,0,5.85-19.09c1.64-6.43,3.7-12.76,5.22-19.23,1.13-4.75,3-9.26,4.09-14,1.25-5.72,3.45-11.18,4.25-17a3.88,3.88,0,0,1,.23-.95c2.23-5.12,2.46-10.76,4.13-16s1.69-10.55,3.86-15.53c1-2.2.84-4.77,1.32-7.16,1.05-5.25,2.82-10.32,3.53-15.66s2.59-10.38,4.12-15.5a125.65,125.65,0,0,0,3.74-16.1,4.54,4.54,0,0,1,.39-1.9c2.81-3.86,2.31-8.71,3.94-12.94s2.55-8.72,3.86-13.07c2.2-7.31,4.46-14.61,6.71-21.91a4.91,4.91,0,0,1,5-3.8A25.69,25.69,0,0,1,115,325a19.1,19.1,0,0,0,4.89,2.08c2.7.71,5,2.23,7.47,3.48s5,1.32,7.28,2.67c2.05,1.2,3.83,2.4,4.16,5a1.68,1.68,0,0,0,.35.88c.58.59,1.27,1.1,2.15.68a1.46,1.46,0,0,0,.82-1.62,18.38,18.38,0,0,0-.8-2.31c2.55.4,5,.32,7.08,1.84a2.93,2.93,0,0,0,3.22.44c1.65-.94,3.22-.43,4.69.15,1.06.43,1.95,1,3.18.67.83-.21,1,.5,1.17,1.19a.93.93,0,0,0,1.42.75,6.66,6.66,0,0,0,4.19-4.42,1,1,0,0,0-.18-.87c-.4-.39-.82-.26-1.18.19a5.71,5.71,0,0,1-1.3,1.38,1.82,1.82,0,0,1-2.45-.92,1.67,1.67,0,0,1,1.14-1.88c1.73-.44,3.47-.83,5.2-1.27a5.25,5.25,0,0,1,2.86.28c1.5.42,1.78.87,1.54,2.47-.36,2.41-.42,2.54,1.35,3.28,1.31.55,2.25,1.82,3.9,1.76.58,0,1,.8.74,1.54a1.09,1.09,0,0,1-1.07.82c-1,0-1.94-.22-2.91-.18a1.77,1.77,0,0,0-1.73,1.44,1.62,1.62,0,0,0,.5,1.78c2.71,1.73,4.52,4.66,7.76,5.7,1.22.39,1.73.16,1.81-1.23,0-.65-.32-1.48,0-1.92,2.3-3.5.22-5.69-2.16-7.87-2.22-2-2.42-3.37-1.05-6,.45-.88,1.47-.9,2.26-.06,1.18,1.26,1.8,1.48,2.65.59,1.24-1.3,2.37-2.61,4.37-2.75a1.75,1.75,0,0,0,1.55-1.65c.37-3.58,2-6.85,2.34-10.45a48.34,48.34,0,0,1,1.78-8.09c2.52-9.07,3.87-18.45,6.88-27.36,2.7-8,4.1-16.39,6.8-24.39,3.54-10.47,5.3-21.47,9.46-31.75a30,30,0,0,0,1.06-4.25c1.73-7.43,3.37-14.87,5.78-22.14,2.6-7.86,4.64-15.89,7.08-23.81,1.33-4.34,3-8.59,4.5-12.86,1.83-5,4-10,5.52-15.09a130.9,130.9,0,0,1,9-23.12,6.08,6.08,0,0,0,.55-1.35,50.3,50.3,0,0,1,5.63-13.35,10.07,10.07,0,0,0,1.36-3.64c.58-4.58,3.54-8,5.61-11.81a3.2,3.2,0,0,1,4.52-1.57c1.16.49,2.56.41,3.53,1.38,3.14-1.83,4.59-4.69,6-7.63,1-2.06,1.73-2.36,3.86-1.86a13.14,13.14,0,0,1,9.34,7c1.76,3.35,2.33,7.1,4.23,10.34a4.89,4.89,0,0,1,.38,2.38,19.56,19.56,0,0,0,1.07,5.73,25.52,25.52,0,0,1,.91,5.77c.48,5.49-.8,10.55-2.81,15.66a261,261,0,0,1-11.29,24.86c-1.73,3.31-2.88,6.91-5,10.05a10.62,10.62,0,0,0-.94,2.75c-3,9.47-6.28,18.8-10.06,28a92.32,92.32,0,0,0-5.36,17.18,80.33,80.33,0,0,1-4.83,16.85,14.81,14.81,0,0,0-.47,2.35c-2.36,9.45-4,19.07-6.82,28.42-1.31,4.33-2.37,8.75-3.71,13.09-.9,2.92-.93,6.08-1.73,9.08-1.85,6.87-2.85,13.95-4.65,20.83-1.93,7.38-3,14.95-5.1,22.3-1.43,5-2.1,10.18-3.07,15.3-2,10.38-3.61,20.83-6,31.13-2.16,9.53-3.22,19.23-5.09,28.79-.62,3.19-1,6.41-1.52,9.62-.77,4.81-1.55,9.61-2.32,14.44,0,.11.08.21.12.31Zm-41.39-65.74.12.09a4.36,4.36,0,0,1-.32-.92c-.25-1.83,0-2.35,1.36-2.41,1.62-.08,3.25,0,4.87,0a3.52,3.52,0,0,0,2.9-3.34,1,1,0,0,0-.94-1c-1.43-.32-2.57,0-3.18,1.47-.76,1.83-2.09,2.42-3.92,1.6-1.31-.59-2.16.05-3,.93a4.22,4.22,0,0,1-4.82,1.39,6,6,0,0,0-4.25.55c-1.8.71-3.48,1.66-5.57,1.29-.69-.12-1.5.47-2.27.71-2.69.87-3.49,1.63-3.32,4.4a2.43,2.43,0,0,1-1.88,2.89,30.78,30.78,0,0,1-3.3.72c-.5.11-1,.1-1.16-.52a1,1,0,0,1,.33-.81c1.43-.7,1.54-1.82,1.42-3.26-.16-1.82,0-1.83,1.54-3.51a5.6,5.6,0,0,0-3.28.52c-1.19.58-1.58.21-1.69-1.31,0-.32.18-.66.12-1a1.34,1.34,0,0,0-1.27-1.23,1.42,1.42,0,0,0-1.42,1.12,12.76,12.76,0,0,0-.05,4.36c.49,6.64,1,13.29,1.39,19.94.17,3.08,0,6.18.09,9.26.52,12.51,1,25,1.7,37.51.84,14.76,1.53,29.53,3,44.26,1.07,10.67,1.58,21.39,2.41,32.09.29,3.72.76,7.43,1.24,11.13.09.65.06,1.7,1.57,1.63,1.19-3.78,2.67-7.56,3.56-11.47A318,318,0,0,0,162.13,479c.89-7.24,2.18-14.44,3.33-21.65,1.41-8.81,3.58-17.47,5.47-26.18.94-4.29,1.71-8.61,2.49-12.92.23-1.26.65-2.7-.19-3.8-1.13-1.49-.79-2.64.28-3.89,2.28-2.67,3.2-5.93,3.78-9.28.47-2.72.58-5.51,1.1-8.22a103,103,0,0,0,1.86-12.4c.26-3.71,1.27-7.36,1.88-11a20.21,20.21,0,0,0,.27-3.88c-.08-2.19-1.46-3.15-3.67-2.6a5.21,5.21,0,0,0-1.62,1A1.91,1.91,0,0,1,174.86,364.05Zm-23.72-4.25c.75-.12,1.09-.55.87-1.27a.83.83,0,0,0-.7-.37c-.61.09-1.25.32-1.2,1.07C150.15,359.76,150.69,359.8,151.14,359.8Z"/><path d="M1115.37,290.5c2.24-1,3.33-3.12,4.52-5,2.62-4.09,5.49-8,7.56-12.47,1.37-2.92,3.51-5.47,5.08-8.31a51.74,51.74,0,0,1,5.11-7.65c2.23-2.74,3.8-6,5.52-9.17a106.12,106.12,0,0,1,9.61-15.21,257.18,257.18,0,0,1,20.59-22.81c2.3-2.28,4.28-4.89,6.43-7.33,1.4-1.58,2.77-3.19,4.26-4.68a8.75,8.75,0,0,0,1.79-2.85c.82-1.92,1.84-3.77,2.79-5.64.65-1.29,2-1.53,3.16-2.14.64-.36,1.2.17,1.69.63a28.47,28.47,0,0,1,7.67,10.43,14.68,14.68,0,0,0,2.34,3.67,9.46,9.46,0,0,1,1.86,2.82c1.81,4.87,2.58,4.23-1.21,7.94-3.52,3.44-6.26,7.5-6.47,12.74a8.85,8.85,0,0,1-2.72,5.57c-4.24,4.71-8.55,9.35-12.62,14.22a100.14,100.14,0,0,0-11.1,16c-1.41,2.59-3.28,4.84-4.74,7.37-3.34,5.76-6.65,11.54-10,17.3-1.22,2.1-2.53,4.16-3.79,6.24-3.53,5.86-6,12.24-9.16,18.31a6.4,6.4,0,0,0-.26,1.67,32.58,32.58,0,0,0,8.58-1.81q9.32-2.82,18.64-5.64c3.11-.94,6.2-1.92,9.3-2.9,13.67-4.33,27.73-7.08,41.72-10.11,4.75-1,9.65-1.39,14.49-2a37.19,37.19,0,0,0,8.59-1.72,16.64,16.64,0,0,1,3.33-.65,2.65,2.65,0,0,1,2.54,1.06c3.23,3.58,5.59,7.54,6,12.47a2.73,2.73,0,0,0,.31,1.4c2.62,3.33,2.76,7.58,4.16,11.35,2.28,6.2.91,7.59-5.12,10.34a6.79,6.79,0,0,1-2.38.49c-5,.33-9.4,2.4-13.62,4.92-2.65,1.58-5.33,3.13-8,4.72-6.57,3.93-12.54,8.72-18.7,13.23a21.57,21.57,0,0,1-6.77,3.77c-3.09.89-5.38-.12-6.69-3.09-.53-1.19-.82-2.48-1.35-3.67-1-2.28-2.24-3-4.66-2.44-1.58.34-3.06,1.14-4.64,1.43-9.3,1.75-18.11,5.23-27.25,7.52-6.62,1.66-13.2,3.44-19.89,4.86a117.11,117.11,0,0,0-19.2,5.33,12.88,12.88,0,0,1-2.78.9c-2.19.31-3.35,1.56-4.22,3.53-4.59,10.4-9.11,20.85-14,31.1-3.87,8.07-6.92,16.47-10.58,24.61-1.59,3.56-3.2,7.11-4.87,10.63-4.81,10.16-8.46,20.78-12.77,31.13a16,16,0,0,1-.69,1.83c-3.07,5.41-4.72,11.41-7.2,17.06a105.92,105.92,0,0,0-5.09,15.23c-.63,2.35-1.61,4.61-2.36,6.93s-1.38,4.67-2.14,7c-2.63,8-5.73,15.87-8.78,23.74A191.21,191.21,0,0,0,1038,565c-1.15,5.57-2,11.2-3.1,16.79a107.09,107.09,0,0,1-5.06,18.27,75.93,75.93,0,0,0-3.23,11.73,55.21,55.21,0,0,1-1.71,5.57c-.71,2.24-2.74,3.17-5.08,2.46a24.5,24.5,0,0,1-9-4.75c-2.57-2.23-5-4.65-7.59-6.84a27.84,27.84,0,0,1-3.59-3.94c-2.54-3.13-3.55-6.5-2.3-10.46a14.17,14.17,0,0,0,.58-3.84c.19-7.7,2-15.09,3.83-22.54,2.32-9.65,5.39-19.07,8.14-28.59,1.71-5.91,2.86-12,5.51-17.66a57.58,57.58,0,0,0,3-9.23c2.57-9.43,6.21-18.47,9.58-27.62,2.87-7.78,6.52-15.26,8.93-23.21,1.56-5.15,3.79-10,5.8-15,1.88-4.67,3.56-9.41,5.31-14.13.15-.42.51-.88-.17-1.43-.44.41-1,.76-1.32,1.29-2,3.89-5.28,7-7,11a8.3,8.3,0,0,1-1.32,2,92.79,92.79,0,0,0-9.25,13.11c-1.82,3.06-4,5.9-5.92,8.91-2.09,3.27-4.12,6.57-6,9.93-3.69,6.5-7.81,12.74-11.47,19.26-2.38,4.24-4.77,8.47-7.1,12.73-1.17,2.13-2.13,4.38-3.18,6.58a5,5,0,0,1-.42.87c-3.83,4.93-5.94,10.74-8.46,16.35-.91,2-2.62,3.56-3.33,5.84-1.43,4.62-3.57,9-4.66,13.75a3.22,3.22,0,0,1-.34.91c-3.72,6.08-4.4,13.21-6.9,19.7a56.63,56.63,0,0,0-2.95,12.26c-.6,4.07-2.48,7.74-3.59,11.64A101,101,0,0,0,961.34,611a46.44,46.44,0,0,1-1,5.26c-.74,2.91-2.08,4-5.13,4.31a2.72,2.72,0,0,1-.49,0c-3.08,0-5.25,1.19-6.46,4.17-.57,1.42-1.34,1.58-2.75,1.1a6.26,6.26,0,0,1-1.8-.74c-3.09-2.35-6.85-3.56-9.92-6-.86-.68-1.88-1.17-2.74-2a23.89,23.89,0,0,0-5.29-4c-2.54-1.28-4.4-3.81-5.76-6.45a7.72,7.72,0,0,1-.74-5.21c1-5.11,2-10.23,2.94-15.34.58-3,1.09-6.08,1.79-9.08,1-4.43,2.17-8.83,3.26-13.25.66-2.68,1.3-5.37,2-8,2.21-8.83,4.94-17.51,7.6-26.22,1.32-4.35,2.39-8.77,3.7-13.12,1.12-3.74,2.51-7.39,3.6-11.13,1.81-6.23,4.69-12.08,6.17-18.44A59.32,59.32,0,0,1,954,476.25c1.79-4,3-8.26,4.48-12.36s2.92-8.6,4.66-12.81c3.12-7.5,6.14-15.05,9.15-22.59,1.33-3.32,2.55-6.68,3.79-10,.08-.23-.15-.57-.32-1.15a29.6,29.6,0,0,0-7.11,2.78c-1.26.62-1.63,2-2,3.24-1.16,4.07-2.41,8.11-3.4,12.22-1.87,7.76-4.58,15.25-7,22.84-.19.62-.51,1.2-.67,1.83a80.47,80.47,0,0,1-3.75,11.57,29.65,29.65,0,0,0-2,7,40.72,40.72,0,0,1-2,7c-3.35,9.5-6.56,19.06-10.23,28.44-2.42,6.18-4.69,12.45-8.16,18.19-1.67,2.77-3.09,5.7-4.77,8.48-4.68,7.76-11.94,12.23-19.8,16a3.29,3.29,0,0,1-1.9.27c-2.38-.47-4.75-1-7.1-1.61-2.82-.74-4.72-2.88-6.58-4.87a31.72,31.72,0,0,0-5.95-5,28.32,28.32,0,0,1-3.59-3.24c-4.23-3.89-4.58-9.25-5.39-14.24-1-5.92-1.05-12-1.38-18-.44-7.84.88-15.58,1.45-23.36.38-5,.93-10,1.3-15.07.15-1.93,0-3.87,0-5.75-1.49-.56-1.73.8-2.45,1.29a8.83,8.83,0,0,0-1.85,1.59,32.29,32.29,0,0,1-4.12,4.78,4.26,4.26,0,0,0-1.09,2.13c-.69,2.67-1.31,5.37-1.89,8.07-1.63,7.63-3.35,15.24-4.81,22.91-1.4,7.34-2.52,14.73-3.75,22.1-.88,5.29-1.8,10.58-2.6,15.88-.51,3.37-.88,6.76-1.24,10.16-.55,5.17-1,10.35-1.52,15.53A8.17,8.17,0,0,1,846,577.1a5,5,0,0,1-5.5,0,62,62,0,0,1-12-9,50.41,50.41,0,0,0-5.38-4.94,14.26,14.26,0,0,1-3.45-4c-2-3.08-2.69-6.2-1.54-9.74a35,35,0,0,0,1.51-8.63c.42-6.36,2.15-12.5,3-18.78.56-4,1.37-8,2-12a21.83,21.83,0,0,0,.34-2.41c.08-1.1-.58-1.72-1.78-1.83a7.38,7.38,0,0,0-3.36.38c-.91.35-1.87.6-2.75,1a6.58,6.58,0,0,1-6.52-.46c-.56-.33-1.12-.66-1.7-.95-1.54-.78-2-.67-2.67.75-1.46,3.08-2.88,6.18-4.34,9.26-2.28,4.86-4.59,9.7-6.87,14.56A74.66,74.66,0,0,1,786.87,543c-2.76,3.68-6.66,5.62-11,6.89a5.57,5.57,0,0,1-4.72-.48c-2-1.29-4.13-2.41-5.64-4.52-2.73-3.81-6-7.19-8.68-11.09-1.31-1.95-2.6-3.74-1.55-6.22a1.22,1.22,0,0,0-.2-.92c-1-1.57,0-2.11,1.17-3a26.37,26.37,0,0,0,8.77-10.84c1.17-2.67,2.18-5.44,3.48-8,2.55-5.09,4.4-10.47,6.9-15.59,2.41-4.93,3.94-10.29,6-15.41,1.74-4.37,3.56-8.71,5.53-13,2.37-5.16,5.15-10.13,7.24-15.43a10.29,10.29,0,0,1,1.21-2.11,40.76,40.76,0,0,0,3.36-7c1.9-4.3,4-8.51,6.13-12.71,1.53-3.05,3.32-6,4.84-9,1.67-3.34,3-6.88,4.77-10.14,4.47-8.1,9-16.16,14.07-23.94,2.21-3.41,4.07-7,6.23-10.48,2.95-4.67,6-9.31,9.07-13.88,2-2.95,4.17-5.81,6.37-8.63,3.47-4.45,7.36-5.23,12-3.87a7.49,7.49,0,0,1,4,3.38,3.69,3.69,0,0,0,2.13,1.75c.41.13,1,.63,1,.91-.2,2.19,2,2.82,2.74,4.37,1.6,3.36,4.37,5.5,7.33,7.6a10.32,10.32,0,0,1,4.7,9c0,13.55-1.64,26.93-3.59,40.3a7.11,7.11,0,0,1-.37,1.91c-1.63,3.64-1.76,7.55-2.09,11.43-.27,3.08-.57,6.16-2.12,8.95a.69.69,0,0,0,.48,1.08,1,1,0,0,0,.84-.33,13.32,13.32,0,0,0,2.74-6.67,69.88,69.88,0,0,1,5.25-18.72,157.22,157.22,0,0,0,6.29-17.42,13.16,13.16,0,0,1,.43-1.39c1.62-4.1,2.89-8.21,2.84-12.74a9.28,9.28,0,0,1,2.18-6.33,5.58,5.58,0,0,1,6.06-2.06c4.77,1.23,8.71,3.3,10.56,8.4,1.47,4,4.52,7.18,7.59,10a83.4,83.4,0,0,1,6.07,6.27,2.72,2.72,0,0,0,2.94,1.07c3.07-.63,5.74-2.26,8.62-3.36,1.44-.56,2-2,2.5-3.45,1.58-4.29,2.47-8.77,3.63-13.17s2.5-5.06,7-3.58c3.93,1.29,6.25,4.5,9.19,7a6.77,6.77,0,0,1,.92,1.13c1.14,1.57,2.67,1.69,4.35,1.11,1.84-.65,3.69-1.28,5.5-2,5.43-2.16,10.61-4.92,16.21-6.7a25.25,25.25,0,0,0,3.91-2,4,4,0,0,0,2.22-3c1.1-7.15,4.21-13.65,6.68-20.34,2.25-6.1,4.71-12.13,7.17-18.14,1.17-2.86,2.56-5.62,3.85-8.43,1.08-2.37,2.22-4.71,3.21-7.11,3-7.21,6.24-14.31,8.67-21.74a76,76,0,0,1,3.39-7.56c4.81-10.68,9.66-21.33,14.67-31.91,3.34-7.07,6.82-14.06,10.65-20.84a104.28,104.28,0,0,0,7.87-16.19,6.4,6.4,0,0,1,.63-1.32c3.42-5.34,7.59-10.13,11.47-15.12a10.45,10.45,0,0,1,2.78-2,4.26,4.26,0,0,1,4.59,0,13.9,13.9,0,0,1,5.66,5.17c1.13,1.79,1.32,1.74,3.11.86.29-.14.53-.39.82-.52,5-2.27,5-2.23,8.64,2.08,1.26,1.48,2.78,2.73,4.14,4.13.79.81,1.53,1.69,2.26,2.56,3.11,3.74,3.2,4,1,8.18a131.78,131.78,0,0,0-7.82,18.3c-2.17,6-4.75,11.77-7.4,17.52-4,8.56-8.14,17-12.19,25.53-2.58,5.43-5.33,10.79-7.83,16.22-2.32,5-5,9.86-7,15-1.56,3.92-3.57,7.66-5.31,11.5-2.35,5.19-4.64,10.39-6.94,15.6a7.92,7.92,0,0,0-.53,1.86c-.16,1,.39,1.5,1.32,1.66a9.24,9.24,0,0,0,4.34-.31c2.18-.68,4.35-1.36,6.49-2.15,2.74-1,5.42-2.2,8.18-3.18a14.54,14.54,0,0,0,6-4c2-2.18,3.89-4.38,5.87-6.54a23.82,23.82,0,0,1,3.42-3.46c1.36-1,2.71-1.73,2.59-3.72a1.45,1.45,0,0,1,.86-1.05c1.73-.38,2.17-1.6,2.61-3.12.73-2.51,2.69-3.51,5.24-3.48a.93.93,0,0,1,.9,1.35c-.24.42-.61.76-.85,1.18-1,1.67-.91,2.5.36,3.87a1.4,1.4,0,0,0,2.15.15,17.33,17.33,0,0,0,2.59-2.89c2.18-3.23,4.42-6.43,6.33-9.82,1.82-3.23,3.27-6.67,4.9-10.07-1-1.19-2,.3-3.11.05-1.34-.31-1.58.72-1.73,1.78-.07.55-.56.88-1,.56a1.54,1.54,0,0,1-.69-1.16c.36-2.64,1.2-5,3.57-6.65,1.34-.9,2.78-1.75,3.35-3.42.22-.64.47-1.22,1.27-1.26s1.41,1.39,1.17,2.4c-.32,1.41-1.23,2.68-1.08,4.22ZM1000.16,465.64a7.21,7.21,0,0,0-1.1.77c-.13.14,0,.5,0,.77.24-.12.6-.17.69-.36a7,7,0,0,0,.32-1.31ZM1093,322.08a10,10,0,0,0-1.3.57,1.13,1.13,0,0,0-.5,1.6c.31.58.86,1,1.53.75s.57-1,.45-1.63c-.08-.46-.2-.92-.32-1.4ZM1031.11,395c-.31.06-.62.14-.94.19a8.06,8.06,0,0,0-6.9,5.83c-.66,2-1.56,3.85-2.31,5.78-.46,1.18-.74,2.46-1.88,3.26a3.65,3.65,0,0,1-.34,2.27c-.17.41-.85,1.17.34,1.13.18,0,.51-.76.48-1.16a15.35,15.35,0,0,0-.49-2.27c2.74-.26,4.32-2.33,5.55-4.27a45.4,45.4,0,0,1,5.86-7.69,2.86,2.86,0,0,0,.54-3.13,2.9,2.9,0,0,0,.83,0c.17,0,.28-.28.42-.43-.59-.28.22-.06-.39.15C1031.62,394.73,1031.37,394.86,1031.11,395ZM925,439.66c-4.48,1.37-6.39,3.84-6.61,7.65a4.46,4.46,0,0,1-.15,1c-1.66,5.93-2.05,12.13-3.82,18.05a44.1,44.1,0,0,0-1,6.12l.94.24C917.88,461.93,922.35,451.49,925,439.66Zm-86.28-4.17c-.72,1.24-1.54,2.43-2.15,3.72-2.08,4.4-4.13,8.82-6.11,13.27-.64,1.42-1.81,2.71-1.41,4.47,2.2.61,2.88-1.62,4.36-2.37,2.17-1.1,3.09-3.07,3.61-5.46A60.13,60.13,0,0,0,838.68,435.49ZM1024,429.83a3.92,3.92,0,0,0-.47-1.19,13.64,13.64,0,0,0-3.3-3.56c-.56-.35-1.09-.7-1.77-.34a2.37,2.37,0,0,0-.8,2.6,2.93,2.93,0,0,0,.88,1.13c1.36.84,2.88,1.45,3,3.43,0,.46.82.41,1.26.12A2.55,2.55,0,0,0,1024,429.83Zm19.73-29.74c-.85-.3-1.52.32-2.29.44-2,.33-1.78,1.18-1.86,2.77a1.63,1.63,0,0,0,.75,1.67c1,.49,1.4-.29,1.86-1,.65-.92,1.37-1.78,2-2.73C1044.46,400.86,1044.21,400.39,1043.76,400.09Zm-31.94,48.06c-.25-.14-.53-.44-.74-.4a2.48,2.48,0,0,0-1.73,2,.42.42,0,0,0,.45.6C1010.79,450.19,1011.92,448.94,1011.82,448.15Zm78.06-121.6c-.24-.78-.89-.83-1.53-.74-.24,0-.63.33-.65.54-.07.82.51,1.06,1.21,1A.91.91,0,0,0,1089.88,326.55Zm-39.7,62.56c0,.7.34,1,.88.87a1,1,0,0,0,.52-.69c.1-.48-.07-1-.64-1A.78.78,0,0,0,1050.18,389.11Zm-34,51.33a1,1,0,0,0,.91-.87c0-.56-.39-.79-.89-.65a.81.81,0,0,0-.64,1C1015.65,440.14,1016,440.28,1016.21,440.44Zm25.24-48.82c.13.06.27.19.39.17.38-.06.53-.3.38-.62a.56.56,0,0,0-.35-.19A7.06,7.06,0,0,0,1041.45,391.62Z"/><path d="M473.36,472.52c.82-5.58,3.66-10.34,6.26-15.18a60.8,60.8,0,0,1,5.46-9.19,4.35,4.35,0,0,0,1-3.19c-.26-2.26,1.1-3.59,2.5-5,3.86-3.89,8.64-6.29,13.53-8.51,2.06-.93,4-1.71,5.6-3.63,1.38-1.69,3.8-1.6,5.91-1.17a24.83,24.83,0,0,1,10.52,4.82c3.39,2.65,4.23,2.4,6.06-1.53a16.78,16.78,0,0,0,1.21-3.18,8.44,8.44,0,0,1,4.59-6c2.06-1,2.81-2.49,3.35-4.42,1.39-5,2.88-10,4.25-15,1.76-6.41,3.6-12.79,5.73-19.1,2.38-7.06,4.22-14.31,6.33-21.47.64-2.18,1.38-4.33,2.06-6.5s1.46-4.31,2-6.52c1.2-5.24,3.29-10.2,4.69-15.35,1.44-5.33,3.83-10.32,5.23-15.64a10.64,10.64,0,0,1,.81-2.3c3.19-5.87,5.13-12.24,7.47-18.46,1.54-4.07,3.65-7.93,4.7-12.21.34-1.38,1.52-2,2.74-2.58l-.21-.25.21.34c-1.32-1.82-1.39-3.72.15-5.34a11.63,11.63,0,0,0,2.79-6.13c.82-4.44,2-8.9.41-13.43a1.55,1.55,0,0,1,.75-2,1.53,1.53,0,0,0,.68-1.68c-.14-.91.38-1.32,1.11-.83,3.16,2.14,6.84,3.3,9.67,6.2s6.45,4.84,9.69,7.25a41.17,41.17,0,0,1,3.72,3.14,6.2,6.2,0,0,1,1.73,7.12c-2,5.37-2.51,11.07-3.63,16.63-.93,4.63-1.62,9.3-2.61,13.91-.65,3-1.68,5.93-2.49,8.91-2.3,8.47-4.47,17-6.88,25.43-2.28,8-4.86,15.83-7.19,23.78-1.92,6.55-3.66,13.16-5.49,19.74-2.93,10.49-5.89,21-8.77,31.47-1.16,4.23-2,8.54-3.21,12.77q-7.11,25.36-14.33,50.71a1.9,1.9,0,0,1-.15.46c-1.27,2.4,0,5.81-2.78,7.54-2.25,1.4-3,4.19-5.48,5.35a2.56,2.56,0,0,0-1.11,1.5q-3.9,13.32-7.72,26.67c-.22.79-.37,1.59-.53,2.39-.52,2.68.19,3.54,3,3.4a18.84,18.84,0,0,0,8.48-2,17.21,17.21,0,0,1,2.62-1.29,8.68,8.68,0,0,0,5.86-6c.55-1.83,1.8-3.44,2.64-5.2a44.22,44.22,0,0,0,2.06-4.93,11.69,11.69,0,0,1,2.63-5.11,8.37,8.37,0,0,0,2-4.34,19.35,19.35,0,0,1,3-7.16,38.4,38.4,0,0,0,3.61-6.9c.35-.91,1-1.71,1.31-2.62.59-1.58,2.87-1.88,2.91-3.74,0-1.6,1.06-2.68,1.63-4a23.68,23.68,0,0,1,2.95-4.36,34,34,0,0,0,3.46-7.3,5.93,5.93,0,0,1,1.94-2.71l-.12.12c2-1.54,3.7-3.2,3.57-6a2.82,2.82,0,0,1,1.16-2.06,3.15,3.15,0,0,0,1.06-2.14c.26-4.7,3.27-8,5.8-11.57,1.41-2,3.46-3.64,4.31-5.81,1.79-4.56,5.62-7.42,8.38-11.16a28.08,28.08,0,0,1,4.85-5.45c3.68-2.91,6.88-6.35,10.58-9.21a55.84,55.84,0,0,1,11.9-6.62l7.13-3.12a9.06,9.06,0,0,0,3.16-2.18c2.47-2.66,3.47-2.62,6.79-1.46a14.22,14.22,0,0,1,6.8,5.31c4,5.53,8.87,10.35,13.5,15.35,2.72,2.93,3.8,5.93,2.91,9.72-.63,2.69-1.11,5.43-2,8a140.1,140.1,0,0,1-10.6,23.51c-3.43,6.09-7.18,12-10.57,18.09a51.16,51.16,0,0,1-4.21,6c-3.63,4.78-7.1,9.67-10.35,14.72-1.84,2.86-4.09,5.46-6.18,8.16-2.78,3.58-5.58,7.14-8.36,10.73a3.94,3.94,0,0,0-1,1.64c-.42,3.08-2.09,5.73-2.77,8.71-.28,1.18.09,1.6,1.46,2,1,.31,1.7.06,1.82-1,.28-2.43,2.15-2.95,4-3.63.88,1.28-.59,2.15-.39,3.24a1.18,1.18,0,0,0,.46.78.94.94,0,0,0,.88-.09c1.22-1.31,2.38-2.66,3.56-4,.74-.83,1.41-.47,2.1.08,1.28,1,1.44,2.38,1.37,3.94s.06,1.69,2.39,1.64c-.17,1-.7,2-.44,2.85,1.12,3.5-.64,6.18-2,9.13-3,6.48-6,12.92-9.64,19.09a106.14,106.14,0,0,1-8.43,11.91,41.54,41.54,0,0,1-7.15,6.59c-7.24,5.67-15.16,10-24.26,12-1.9.41-4,.55-5.6,1.53-2.19,1.36-3.84,1-5.8-.22-3.14-2-6.4-3.85-9.59-5.79a14.48,14.48,0,0,1-5.63-6,16.8,16.8,0,0,0-3.85-4.93c-2.25-2.08-4-4.65-6.1-7-2.88-3.25-3.39-7.34-3.87-11.34-.33-2.85-1.36-5-3.81-6.38a20.37,20.37,0,0,1-6-5.69c-1.34-1.78-3.36-2.81-4.32-5.19-1.84,2.85-1.84,5.71-2.51,8.35-1,3.78-1.51,7.66-2.2,11.5a16,16,0,0,0-.35,2.9c0,2.39.79,3.4,3.12,4.3,3.09,1.19,5,3.19,5.25,6.71A29.73,29.73,0,0,1,541.07,584a24.55,24.55,0,0,1-6.38,7.88c-.62.53-1.35.91-2,1.42-3.3,2.64-6.46,5.24-7.91,9.59-1.34,4-2.07,4-5.56,1.81-6-3.82-11.07-8.47-14.41-14.84a11.09,11.09,0,0,0-1.61-2.44c-1.76-1.89-3.53-3.8-5.31-5.66-2.22-2.31-3.23-2.17-5.38-.28-3.16,2.77-6.37,5.45-10.46,7a7.59,7.59,0,0,1-6.95-.37c-.84-.49-1.74-.87-2.58-1.37a8.3,8.3,0,0,0-3.54-1.53,3.71,3.71,0,0,1-3.49-2.92c-.32-1.07-.93-1.39-2-1.74-5.16-1.69-8.64-5.58-11.92-9.66a2.66,2.66,0,0,1-.24-2.35,25.12,25.12,0,0,0,.39-7.78c-.35-4.77.76-9.39,1.44-14,.41-2.73.27-5.46.7-8.19a112.75,112.75,0,0,1,2.66-13.36c.85-3,1.89-5.81,2-8.93a5.88,5.88,0,0,1,.77-2.8,17.45,17.45,0,0,0,2-6.47c.32-1.73.39-3.53,1.75-5a4.61,4.61,0,0,0,.68-2.28,63.2,63.2,0,0,1,5.08-16.22c.7-1.46,1.08-3.06,1.67-4.57.87-2.24,1.1-4.78,3-6.54,0,.8.08,1.61.05,2.41s-.79,1.45-.07,2.22c.42.45,1.14-.55,1.47-2,.14-.62.45-1.22.55-1.85.15-1-.47-1-1.19-.79C474,472.42,473.68,472.46,473.36,472.52Zm13.12-20.25-1.56.34c-.89,1.15-1.79,2.3-2.68,3.46-.49.63-1.18,1.16-1,2.09.1.65,1.16,0,2.27-1.17a4.27,4.27,0,0,0,1.36-4.39l1.72-.45-.16-.24Zm12.07,40a1.48,1.48,0,0,0,1.2-1.66,18.45,18.45,0,0,0,5-12c-2.45,4.23-4.4,7.86-4.85,12.15-.44.53-.87,1.06-1.29,1.64,0,.13.13.28.09.39-.14.43-.05.55.05.27S498.62,492.53,498.55,492.27Zm-35.31,19.51a2.28,2.28,0,0,0,1.75-1.51c.13-.42.21-1.15,0-1.32-.55-.4-.72.2-.87.62-.28.76-.55,1.52-.79,2.32,0,.45-.09.91-.12,1.36,0,.13,0,.39.09.39.33,0,.49-.18.39-.57S463.39,512.21,463.24,511.78Zm131.67,33.11c-1.33.75-3.22.79-3.34,2.8,0,.11.21.34.29.32C593.59,547.75,594.43,546.48,594.91,544.89ZM471.07,485l.21-.29-.31-.06Z"/><path d="M783.57,419.5A12.49,12.49,0,0,0,786,419c1-.47,1.61-.09,1.78.87.47,2.6,2.23,3.84,4.56,4.52,1.28.37,2.35.74,2.62,2.42s.88,3.37-.7,4.95c-2.65,2.64-5.12,5.44-7.68,8.17a19.18,19.18,0,0,0-2.7,2.79A46,46,0,0,1,777,450.9c-4.26,4.3-7.65,9.28-11.43,13.94-2.67,3.28-5.21,6.66-7.8,10-1.18,1.53-2.66,2.82-3.3,4.78a7,7,0,0,1-1.71,2.34,72.84,72.84,0,0,0-6.88,9.4c-1.8,2.71-3.73,5.33-5.62,8-2.37,3.3-4.8,6.55-7.14,9.87-1.21,1.72-2.27,3.56-3.42,5.33-4.51,6.94-9.06,13.87-13.73,20.72-3.65,5.36-6.75,11.09-10.06,16.69s-6.42,11.31-9.91,16.79c-3.66,5.75-7.3,11.57-12.53,16.12a6.26,6.26,0,0,0-1.86,3.31c-2.63,9.55-4.83,19.21-7.1,28.86-3.26,13.79-5.62,27.74-7.83,41.7-1.33,8.33-3.15,16.65-2.58,25.18a6,6,0,0,1-1.83,4.38c-1.13,1.34-2.73,2.28-3.27,4.13a1.46,1.46,0,0,1-1.63.81,5.37,5.37,0,0,1-1.9-.4c-4.55-2.45-9.4-4.31-13.78-7.06a16.72,16.72,0,0,1-2-2.07c-.83-.78-1.61-1.94-2.58-2.16-2.76-.64-4.12-3-6.29-4.37-3.51-2.14-3.7-5.46-3.35-8.95.4-3.87,1.14-7.71,1.4-11.59q.69-10.22.94-20.45a189.82,189.82,0,0,1,2.16-21.83c.77-5.46,1.08-11,2.49-16.38.65-2.48.39-5.17.78-7.73a347.72,347.72,0,0,1,8.51-40.05c1.85-6.7,4.24-13.26,6.3-19.91.89-2.9,2.34-5.72,1.71-8.94a2.88,2.88,0,0,1,.25-1.42c2-5.64,3.7-11.39,6.18-16.87,3.29-7.24,6.42-14.55,9.7-21.8a123.19,123.19,0,0,0,4.62-13.31,132,132,0,0,1,6.48-16.79c2.43-5.08,4.61-10.32,6.58-15.63,1.5-4.05,2.8-8.18,5-12a62.71,62.71,0,0,0,4.38-10.25c3.62-10.09,6.54-20.42,10.69-30.32a16.17,16.17,0,0,0,1.28-5.66,10.1,10.1,0,0,1,4.41-8.28c1.06-.75,2-1.62,3.1-2.36a13.05,13.05,0,0,0,4.88-7.06A62.34,62.34,0,0,1,724.52,347a2.5,2.5,0,0,1,2.75-1.47c1.7.24,3.62-.29,4.84,1.59.7,1.07,1.64.81,2.48.07,2.67-2.38,5.42-4.69,8-7.17,5.85-5.64,12.14-10.82,17.72-16.75,2-2.13,4.26-4,6.43-5.95,5.55-5,11-10.07,15.48-16.12a8.45,8.45,0,0,1,1.37-1.37,147.29,147.29,0,0,0,10.82-10.53c3.33-3.44,6.44-7.31,11-9.42a12,12,0,0,0,2.85-1.87c3.49-3.16,8-4.17,12.21-5.63a9,9,0,0,1,2.89-.34,4.58,4.58,0,0,1,4.68,2.83c.65,1.52,1.46,2.91,3.17,3.51a1.62,1.62,0,0,1,.74.61c3.62,5.49,9.2,9.07,13.52,13.89a9.17,9.17,0,0,1,1.86,2.81,2.67,2.67,0,0,1-.05,2.34c-3.32,6.36-5.15,13.33-8,19.87-1.5,3.41-2.56,7-5,10-.88,1.06-1,2.73-1.7,4-4.76,7.92-8.54,16.43-14.18,23.83-2.12,5.33-6,9.6-8.79,14.49s-5.9,9.66-8.65,14.58c-3.09,5.54-6.83,10.64-10.12,16-2.27,3.73-4.59,7.44-6.65,11.29a37,37,0,0,0-2,4.94C781.5,418.63,781.85,420.05,783.57,419.5Zm23.32-79.67s0-.13,0-.15l-.09-.15Zm-.15-5.37a7.69,7.69,0,0,0,1.17-.83c.14-.15,0-.53,0-.8-.27.11-.68.15-.77.34a7,7,0,0,0-.34,1.4l-1.3,1c-1.71,1.73-3.22,3.67-5.76,4.34-.66.18-1.15,1-1.72,1.5l-1.15,1.16a69.28,69.28,0,0,0-11.35,11.91c-4.94,6.65-9.3,13.68-14.25,20.3-2.64,3.52-4.89,7.28-7.37,10.89-1.1,1.6-2.38,3.08-3.4,4.73-2,3.31-3.72,6.88-6,10-3.44,4.75-6.38,9.8-9.47,14.76s-6.17,9.94-9.14,15-5.62,10.25-8.72,15.18a59.62,59.62,0,0,0-6.28,14.2c-.76,2.45-1.07,5.1-2.65,7.25a2.5,2.5,0,0,1,.19.41,1,1,0,0,1,0,.34c0-.26-.08-.52-.11-.78,1.46.11,2.32-.82,3.31-1.72,4.4-4,6.9-9.4,10.92-13.67a58.91,58.91,0,0,0,5-6.59c1.31-1.85,2.41-3.78,4.68-4.78a7.19,7.19,0,0,0,2.94-3.19,7.72,7.72,0,0,1,1.35-2c5.4-4.5,8.66-10.93,14-15.49a3.43,3.43,0,0,0,.64-.73c1.57-2.65,2.88-5.48,5.43-7.42a1.15,1.15,0,0,0,.43-.83c-.08-2.95,2.25-5,2.81-7.72a3.85,3.85,0,0,1,1.91-2.71,2.94,2.94,0,0,0,1.23-1.44c1.15-3.1,3.54-5.42,5.17-8.23.77-1.31,1.67-2.29,1.08-3.93-.32-.87.38-1.53,1-2.1,2.68-2.62,3.3-6.72,6.48-9a.64.64,0,0,0,.22-.43c.41-3.09,2.62-5.15,4.32-7.49,1-1.34,2.33-2.83,1.8-4.36-.84-2.41.28-3.67,1.78-5a10.85,10.85,0,0,0,2.39-4,121.69,121.69,0,0,1,6.18-11.6c1.21-2.13,2.66-4.13,2.06-6.78Zm-23.36,91,0,.35.31-.15Z"/><path d="M692.9,719.46a21.72,21.72,0,0,0-6.58-.53,4,4,0,0,1-2.72-.79,6.71,6.71,0,0,0-5.16-2.13c-.77,0-1.38-.73-1.7-1.56-.38-1,.08-2.33,1-2.26,1.77.13,3.53-1.7,5.42.28.81.85,2.58-.87,4.08.1s2.25-.67,3.33-1.27,6,1.87,6.44,3.15c.19.61.27,1.26.43,1.89a1.35,1.35,0,0,1-1,1.86C695.26,718.57,694.37,719.82,692.9,719.46Z"/><path d="M654.89,726.83c-1-3.6-1.45-6.52-3.95-8.46a3,3,0,0,1-.76-1.72,2.05,2.05,0,0,1,.36-1.34.87.87,0,0,1,1.27-.16c1,.92,1.87,1.64,3.42,1,1-.43,1.8.66,2.35,1.38a10.06,10.06,0,0,1,1.16,2.63,1.55,1.55,0,0,1-.79,2C655.55,723.82,655.57,723.84,654.89,726.83Z"/><path d="M646,713.16a2.14,2.14,0,0,1,2.16,1.44,2.26,2.26,0,0,1-.72,2.61c-.75.78-1.5,1.13-2.51.35a5.39,5.39,0,0,0-1.74-.79,1,1,0,0,0-.85.3.92.92,0,0,0-.1.86c.35.54.84,1,1.22,1.49a.45.45,0,0,1-.23.75.75.75,0,0,1-.47,0c-2-.88-2.65-2.67-3.08-4.56a1.33,1.33,0,0,1,.94-1.53C642.33,713.69,644.1,713.47,646,713.16Z"/><path d="M650.48,723c0,.27-.09.74-.18,1.21a1.26,1.26,0,0,1-1.33,1.09,1.73,1.73,0,0,1-1.82-1.25,4.41,4.41,0,0,1,.16-1.86c.23-.93.59-1.84,1.75-1.95C650,720.12,650.55,721.22,650.48,723Z"/><path d="M297.32,376.81a2.29,2.29,0,0,1-2-2.31,1.1,1.1,0,0,1,.33-.83c.52-.39.8,0,.95.47C296.82,375,297.05,375.87,297.32,376.81Z"/><path d="M1098.81,307.7a.82.82,0,0,1-1,.62,1.31,1.31,0,0,1-1.17-1.21.82.82,0,0,1,.82-.91A1.43,1.43,0,0,1,1098.81,307.7Z"/><path d="M638.7,719.69c-.56,0-.84-.34-.76-.85,0-.17.43-.46.59-.41a1,1,0,0,1,.6.59C639.16,719.2,638.85,719.46,638.7,719.69Z"/><path d="M299.22,368.05l-.79.12a5.17,5.17,0,0,1,.1-.79c0-.07.3-.13.42-.09C299.32,367.42,299.4,367.69,299.22,368.05Z"/><path d="M178.16,346.57c.26.12.65.18.74.37s-.19.49-.3.75c-.25-.12-.63-.18-.71-.37S178.06,346.83,178.16,346.57Z"/><polygon points="1104.8 298.23 1104.82 298.63 1104.47 298.47 1104.8 298.23"/><path d="M610,639.1c.14,0,.29-.15.41-.11a.41.41,0,0,1,.25.32c0,.43-.29.52-.61.21C609.92,639.45,610,639.25,610,639.1Z"/><path d="M180.56,330.81l-.48.52a3,3,0,0,1-.33-.61c0-.08.14-.23.21-.34Z"/><path d="M612.78,636.11c.13-.06.3-.2.39-.16.35.13.36.4,0,.65a.43.43,0,0,1-.39-.08C612.74,636.43,612.79,636.25,612.78,636.11Z"/><path d="M702,720.19c-.07.06-.17.22-.28.23-.36,0-.52-.18-.42-.54a.43.43,0,0,1,.28-.29C701.89,719.54,702,719.75,702,720.19Z"/><polygon points="704.43 713.78 704.64 713.41 704.8 713.81 704.43 713.78"/><path d="M148.58,335.26a1.53,1.53,0,0,1-.4.09.51.51,0,0,1-.09-.31C148.44,334.8,148.61,334.88,148.58,335.26Z"/><path d="M167.47,396.77c1.18.69,2.13.17,3-.59a1.92,1.92,0,0,1,1.77-.44,1.42,1.42,0,0,1,1.21,1.28,1.58,1.58,0,0,1-.48,1.23,27.45,27.45,0,0,1-3,1.49,3.4,3.4,0,0,1-4.31-1.54c-.22-.43.33-1.47.84-1.5A5.79,5.79,0,0,1,167.47,396.77Z"/><path d="M171.8,372.72a7.63,7.63,0,0,1,0-1c.18-2.8.79-3.51,3.22-3.62a16.72,16.72,0,0,1,2.32.23c.35,1.75-1.25,1.73-1.88,2.48a4.62,4.62,0,0,1-3.76,1.72Z"/><path d="M174.86,364.05c-1.12.94-2.19,1.93-3.36,2.79a4.7,4.7,0,0,1-1.78.65,1.2,1.2,0,0,1-1.39-1.46c.45-1.58,1.2-2.18,2.74-2.13,1.3,0,2.59.15,3.9.24Z"/><path d="M172.57,404.64a.93.93,0,0,1,.86.93c.08.92-.52,1.67-1.24,1.49a1.09,1.09,0,0,1-.88-1.37A1.32,1.32,0,0,1,172.57,404.64Z"/><path d="M174.2,390.63a1.36,1.36,0,0,1-1.55-1.44,1.19,1.19,0,0,1,1.27-1.19,1.49,1.49,0,0,1,1.58,1.5C175.51,390.26,174.9,390.56,174.2,390.63Z"/><path d="M162.48,373.31c.11.66-.7,1.67-1.3,1.54a1,1,0,0,1-.61-.58,1.1,1.1,0,0,1,.8-1.44A.86.86,0,0,1,162.48,373.31Z"/><path d="M160.07,381.51a.82.82,0,0,1-1,.66.66.66,0,0,1-.48-1,.77.77,0,0,1,1.13-.4C159.92,380.88,160,381.26,160.07,381.51Z"/><path d="M171.66,372.58a3.41,3.41,0,0,1-.19.93,1.13,1.13,0,0,1-.63.57c-.13,0-.54-.37-.51-.5a1.09,1.09,0,0,1,.54-.64,3.42,3.42,0,0,1,.93-.22Z"/><path d="M154.19,390.28c-.08.13-.14.34-.25.37-.36.13-.58-.07-.54-.48,0-.14.11-.38.21-.4C154,389.69,154.19,389.89,154.19,390.28Z"/><path d="M777.68,379.05c-.24.31-.49.67-.78,1a.47.47,0,0,1-.4.13c-.33-.1-.41-.37-.2-.69s.39-1.2,1.22-.9C777.6,378.62,777.61,378.84,777.68,379.05Z"/><path d="M797.51,346.78a12.07,12.07,0,0,1,.91-1.1c.31-.31.59-.23.65.15a.46.46,0,0,1-.24.38c-.42.2-.87.34-1.3.51Z"/><path d="M793,352l-.39.17c0-.13-.18-.34-.14-.38C792.81,351.48,793,351.57,793,352Z"/><path d="M796.84,342.42l1.07-1.08c.25.37.64.85.2,1.18C797.85,342.71,797.27,342.47,796.84,342.42Z"/><path d="M797.53,346.72l.12.83c0-.25-.08-.49-.13-.75C797.51,346.78,797.53,346.72,797.53,346.72Z"/><path d="M764.88,400.35l0,.12Z"/><path d="M764.85,400.47l-.09-.36.11.23A.51.51,0,0,1,764.85,400.47Z"/></svg>