<svg id="Layer_1" data-name="Layer 1" xmlns="http://www.w3.org/2000/svg" viewBox="0 0 206 206"><defs><style>.cls-1{fill:#cea74d;}.cls-2{fill:#fbf167;}.cls-3{fill:#525453;}.cls-4{fill:#7f6d30;}.cls-5{fill:#806d30;}.cls-6{fill:#fe675c;}.cls-7{fill:#b94b44;}</style></defs><title>luna</title><path d="M168.23,77.36h10c.78,4.44,1,36.88.37,52.9H168.23q-.33-.37-.69-.75a279.39,279.39,0,0,1,0-51.41Z"/><path d="M83.59,13.87v-10A2.11,2.11,0,0,1,84,3.47a.93.93,0,0,1,.46-.17h30.92V13.87l-.73.68a102.51,102.51,0,0,1-30.29,0Z"/><path d="M157.65,45.61h10.58V77.36c-3.47,2.27-7,2-10.59.24-2.38-3.26-1.4-7-1.51-10.59s-.13-7,0-10.47-.57-6.92.85-10.24Z"/><path d="M168.23,130.26V162H157.65l-.65-.7c-1.43-3.38-.7-7-.86-10.44.38-6.9-1.54-13.94,1.33-20.68C161.07,128.09,164.66,128,168.23,130.26Z"/><path d="M115.33,193.74v10a1.85,1.85,0,0,1-.37.37.86.86,0,0,1-.45.17H83.59V193.74l.73-.67a102.17,102.17,0,0,1,30.29,0Z"/><path d="M62.43,24.45V13.87H83.59c3.82,8,1.51,12.2-7,12.19-4.48,0-9.05.82-13.42-.9Z"/><path d="M115.33,13.87h21.16V24.45l-.69.65c-3.33,1.42-6.85.7-10.29.85-3.56-.08-7.25.86-10.54-1.37C113.28,21,113,17.37,115.33,13.87Z"/><path d="M51.85,87.94V77.36H73l.66.71c1.11,3.53,1.57,7-.68,10.31-6.79,1.92-13.6,1.63-20.42.24Z"/><path d="M73,151.42V130.26l.73-.67c3.57-1.08,7.11-1.66,10.34,1,2.13,5.94,1.12,12,.82,18.07-.16,3.26-2.66,4.2-5.53,4.32a10.51,10.51,0,0,1-5.61-.83Z"/><path d="M73,130.26H51.85V119.68l.74-.68c6.93-1.3,13.86-1.94,20.71.48C75.1,123.12,75.31,126.73,73,130.26Z"/><path d="M51.85,162V151.42H73c2.29,3.51,2,7.09.34,10.72-6.85,2.6-13.8,1.78-20.76.56Z"/><path d="M73,56.19H51.85V45.61l.68-.64c3.29-1.41,6.75-.7,10.15-.85,3.45.08,7-.71,10.26,1.17,2.27,3.25,1.86,6.7.74,10.2Z"/><path d="M83.59,193.74H62.43V183.16l.77-.7c5.8-1.75,11.74-1.2,17.57-.57C85.51,182.4,86.56,187.52,83.59,193.74Z"/><path d="M136.49,183.16v10.58H115.33c-4.24-9-1.37-12.49,9.87-12.11,3.53.16,7.15-.58,10.59.87Z"/><path d="M73,77.36V56.19c8-3.81,12.14-1.51,12.19,7,0,4.33.52,8.71-.56,13a4,4,0,0,1-1.15,1.65C79.93,79.25,76.41,79.58,73,77.36Z"/><path d="M51.85,35V24.45H62.43c2.22,3.38,2,6.86.41,10.39-3.24,2.46-6.73,2-10.28.87Z"/><path d="M136.49,24.45h10.58V35l-.72.67c-3.53,1.1-7,1.59-10.33-.73C134.5,31.39,134.24,27.86,136.49,24.45Z"/><path d="M147.07,35h10.58V45.61c-3.16,2.21-6.55,1.65-10,.82a3,3,0,0,1-1.37-1.3C145.36,41.68,144.84,38.25,147.07,35Z"/><path d="M51.85,119.68H41.57c-.63-1.6-.23-3.34-.29-5s0-3.47,0-5.55H51.85c.21.23.42.46.64.68C53.62,113.17,54,116.51,51.85,119.68Z"/><path d="M51.85,98.52H41.57c-.63-1.6-.23-3.35-.29-5s0-3.47,0-5.55H51.85c2.16,3.17,1.78,6.51.65,9.9Z"/><path d="M51.85,45.61H41.57c-.63-1.59-.23-3.34-.29-5s0-3.47,0-5.56H51.85A9.2,9.2,0,0,1,51.85,45.61Z"/><path d="M51.85,109.1V98.52c3.55-2.3,7.16-2.09,10.81-.26a11.42,11.42,0,0,1,.08,11C59.07,111.24,55.44,111.41,51.85,109.1Z"/><path d="M157.65,162v10.58H147.07l-.66-.71c-1.1-3.52-1.57-7,.81-10.25C150.76,160,154.25,159.77,157.65,162Z"/><path d="M62.43,183.16H51.85V172.58l.72-.66c3.53-1.11,7-1.58,10.33.73C64.42,176.23,64.68,179.75,62.43,183.16Z"/><path d="M147.07,172.58v10.58H136.49c-2.29-3.54-2.09-7.15-.26-10.81C139.88,170.46,143.5,170.28,147.07,172.58Z"/><path d="M51.85,172.58H41.57c-.63-1.59-.23-3.34-.29-5s0-3.47,0-5.56H51.85A9.2,9.2,0,0,1,51.85,172.58Z"/><path class="cls-1" d="M168.23,130.26H157.65c-.21-.24-.43-.47-.65-.7-1.44-3.4-.71-7-.87-10.47q-.3-15.25,0-30.51c.15-3.52-.57-7.11.87-10.52l.66-.7h10.58Z"/><path class="cls-2" d="M62.43,35V24.45H83.59V13.87h31.74V24.45c2.46,3.23,1.42,7,1.48,10.55.16,8.33.06,8.33,8.08,9.62a3.77,3.77,0,0,1,1.37.89c1.13,1.68,1,3.62,1.08,5.5.07,2.56,1.26,3.76,3.86,3.74s3.77-1.27,3.85-3.8c.06-1.71,0-3.47.83-5.08a3,3,0,0,1,1.32-1.12c3.39-.79,6.76-1.36,9.87.86a21.17,21.17,0,0,0,10.58,10.58V66.78c-3.17,2.4-6.85,1.42-10.36,1.53-4.55.12-9.11.17-13.66,0-4-.15-6.47,1-6.27,5.49a5.5,5.5,0,0,1-1.31,3.91,11.8,11.8,0,0,1-10.37.18c-3-3.24-1.75-7.26-1.83-11-.18-8.43-.07-8.44-8.07-9.74a3.82,3.82,0,0,1-1.42-.95c-.2-.67-.26.23-.24-.45.19-6.66-3.16-9.66-9.65-9.53A3,3,0,0,1,93.33,45c-1.64-8.44-1.64-8.43-10.69-8.45-3.18,0-6.35.08-9.53,0-3.35-.13-6.77.55-10-.85C62.87,35.47,62.65,35.25,62.43,35Z"/><path class="cls-3" d="M157.65,56.19H147.07V45.61h10.58Z"/><path class="cls-1" d="M147.07,66.78h10.58V77.36c-3.54,2.29-7.15,2.09-10.81.26C145,74,144.77,70.34,147.07,66.78Z"/><path class="cls-1" d="M62.43,183.16V172.58c1.65-1.72,3.84-1.5,5.91-1.54,5.07-.09,10.15,0,15.23,0,8.3,0,8.3,0,9.54-7.83a4.22,4.22,0,0,1,.9-1.49c.28-.19.59-.51.89-.48,6.94.57,9.08-3.5,9.22-9.52a3,3,0,0,1,1.3-1.13c8.36-1.62,8.27-1.62,8.41-10.6,0-3.4-.88-7,1.64-10.07a11.86,11.86,0,0,1,10.27-.21,4.92,4.92,0,0,1,1.52,3.22c1.2,6.37,1.2,6.37,7.86,6.39h1.57c7.47,0,7.47,0,9.22-7.31a4.24,4.24,0,0,1,1.26-2.24c3.58-1.45,7.1-1.78,10.48.52v21.16c-3,2.32-6.55,1.41-9.91,1.5h-3.11c-6.06,0-6.06,0-6.8,6.24a7.53,7.53,0,0,1-.66,2.5,3,3,0,0,1-1.27,1.17c-8.43,1.71-8.36,1.71-8.48,10.67,0,3.27.82,6.73-1.51,9.66H115.33v10.58H83.59V183.16Z"/><path class="cls-3" d="M147.07,151.42h10.58V162H147.07l-.64-.68C145.29,157.93,144.91,154.59,147.07,151.42Z"/><path class="cls-1" d="M125.91,45.61H115.33V24.45h10.58A29.26,29.26,0,0,1,125.91,45.61Z"/><path class="cls-2" d="M125.91,45.61V24.45h10.58V35a9.17,9.17,0,0,1,0,10.58A9.17,9.17,0,0,1,125.91,45.61Z"/><path class="cls-2" d="M62.43,98.52H51.85V87.94H73A21.21,21.21,0,0,0,83.59,77.36c3.35-2.28,6.84-1.94,10.38-.59.85,6.65,4.5,10.56,11.25,11.43,1.52,3.65,1.8,7.23-.42,10.73a5.4,5.4,0,0,1-2.93,1.06c-11.87.43-23.75.31-35.63.07A5.77,5.77,0,0,1,62.43,98.52Z"/><path class="cls-4" d="M83.59,77.36V87.94H73V77.36Z"/><path class="cls-2" d="M73,162V151.42H83.59V130.26l.69-.65c3.34-1.42,6.86-.69,10.31-.85,3.57.1,7.32-.93,10.51,1.62,1.84,7,2.49,14.07-.35,21A21.17,21.17,0,0,0,94.17,162,29.26,29.26,0,0,1,73,162Z"/><path class="cls-5" d="M73,130.26V119.68c3.53-2.36,7.64-2.78,10.5.06s2.38,7,.08,10.52Z"/><path class="cls-1" d="M83.59,130.26V119.68H51.85V109.1H62.43a7,7,0,0,1,4.9-1.63c11.09-.11,22.18-.16,33.26,0a7.45,7.45,0,0,1,4,1.09c2.49,3.4,2,7,.73,10.64-.21.26-.4.6-.7.74-7,3.27-7.42,3.66-10.48,10.29Z"/><path class="cls-4" d="M73,162H94.17v10.58H51.85V162Z"/><path class="cls-1" d="M94.17,77.36H83.59V56.19H73V45.61l.73-.68c6.86-1.19,13.71-2.14,20.43.68a21.14,21.14,0,0,0,10.58,10.58c2.71,7,2.35,14.07.27,21.15A9.51,9.51,0,0,1,94.17,77.36Z"/><path class="cls-2" d="M51.85,45.61V35H62.43a9.2,9.2,0,0,1,0,10.58Z"/><path class="cls-1" d="M62.43,45.61V35H73a9.2,9.2,0,0,1,0,10.58Z"/><path class="cls-4" d="M125.91,183.16V162h10.58a9.12,9.12,0,0,1,0,10.58v10.58Z"/><circle class="cls-1" cx="141.78" cy="40.32" r="7.48"/><path class="cls-3" d="M104.75,109.1H62.43V98.52h42.32c.64-.29-.25-.27.42-.3,6.69-.25,9.41-4.27,10-10.39,3.2-2,6.6-1.56,10-.77a3.16,3.16,0,0,1,1.41,1.25c1.33,3.34.72,6.84.82,10.28s.11,6.82,0,10.22.44,6.89-.68,10.24a3,3,0,0,1-1.29,1.37c-3.43,1-6.82,1.33-10.11-.48C112.73,114.07,110.41,111.69,104.75,109.1Z"/><path class="cls-1" d="M136.49,172.58V162a9.2,9.2,0,0,1,10.58,0v10.58Z"/><path class="cls-3" d="M157.65,87.94v31.74c-3.15,2.2-6.53,1.64-9.94.83a3,3,0,0,1-1.36-1.27c-1.26-3.34-.68-6.81-.78-10.24s-.1-6.8,0-10.2-.44-6.87.66-10.23a3.08,3.08,0,0,1,1.3-1.37C151,86.21,154.43,85.71,157.65,87.94Z"/><path class="cls-4" d="M157.65,87.94H147.07a9.1,9.1,0,0,1,0-10.58h10.58Z"/><path class="cls-4" d="M147.07,119.68h10.58v10.58H147.07A9.1,9.1,0,0,1,147.07,119.68Z"/><path class="cls-3" d="M147.07,77.36V87.94c-3.24,2.44-7,1.39-10.57,1.53-3.58-.12-7.34.91-10.59-1.53a9.2,9.2,0,0,1,0-10.58V66.78h21.16Z"/><path class="cls-4" d="M104.75,77.36V56.19h10.58V77.36l-.62.6a13.35,13.35,0,0,1-9.34,0Z"/><path class="cls-4" d="M73,45.61V35H94.17V45.61Z"/><circle class="cls-5" cx="99.46" cy="50.9" r="7.48"/><path class="cls-1" d="M125.91,45.61h10.58V56.14c-3.39.13-6.81,0-10.58.07Z"/><path class="cls-4" d="M125.91,77.36V87.94H115.33l-.65-.69c-1.13-3.38-1.51-6.72.65-9.89Z"/><path class="cls-3" d="M147.07,119.68v21c-6.92.42-13.86.07-21.16.23V130.26a9.2,9.2,0,0,1,0-10.58c3.25-2.44,7-1.4,10.57-1.54C140.07,118.27,143.83,117.23,147.07,119.68Z"/><path class="cls-4" d="M104.75,151.42V130.26c.21-.2.42-.4.62-.61a13.35,13.35,0,0,1,9.34,0c.21.2.42.4.62.61v21.16Z"/><path class="cls-4" d="M125.91,119.68v10.58H115.33c-2.16-3.17-1.78-6.51-.65-9.9.21-.23.43-.45.65-.68Z"/><circle class="cls-5" cx="99.46" cy="156.71" r="7.48"/><path class="cls-5" d="M147.07,162H136.49V151.42h10.58Z"/><path class="cls-4" d="M94.17,77.36h10.58c2.16,3.17,1.78,6.51.65,9.9l-.65.68H94.17Z"/><path class="cls-4" d="M115.33,87.94V98.52H104.75V87.94A9.17,9.17,0,0,1,115.33,87.94Z"/><path class="cls-4" d="M94.17,130.26V119.68h10.58c.21.23.43.46.65.68,1.13,3.39,1.51,6.73-.65,9.9Z"/><path class="cls-4" d="M104.75,109.1h10.58v10.58a9.2,9.2,0,0,1-10.58,0Z"/><path class="cls-6" d="M136.49,119.68H125.91V109.1c3.54-2.27,7.1-2.11,10.7-.15C138.63,112.54,138.77,116.13,136.49,119.68Z"/><path class="cls-6" d="M125.91,87.94h10.58c2.27,3.53,2.11,7.1.15,10.69-3.59,2-7.17,2.17-10.73-.11Z"/><path d="M125.91,98.52h10.58l.61.62a13.35,13.35,0,0,1,0,9.34l-.62.62H125.91Z"/><path class="cls-7" d="M136.49,119.68V109.1a9.2,9.2,0,0,1,10.58,0v10.58Z"/><path class="cls-7" d="M136.49,98.52V87.94h10.58V98.52A9.2,9.2,0,0,1,136.49,98.52Z"/><circle class="cls-6" cx="141.78" cy="103.81" r="7.48"/><circle class="cls-1" cx="110.04" cy="82.65" r="7.48"/><circle class="cls-2" cx="110.04" cy="124.97" r="7.48"/></svg>