<svg id="Layer_1" data-name="Layer 1" xmlns="http://www.w3.org/2000/svg" viewBox="0 0 512 512"><title>nullLogo</title><path d="M432.8,9.14l69.42,75.2C452.09,111,460.4,147.4,476.64,195.62c29.3,87,3.05,166.93-63.85,228.93-68.18,63.19-149.85,81.07-237.11,45.94-33.87-13.64-57.39-15-78.17,16.93-3.67,5.63-10.59,9.14-18.2,15.44L9.78,427.69C60.29,401,51.5,364.43,35.39,316.32c-29.13-87-3.12-166.86,63.83-228.95C167.48,24.05,249.13,6.56,336.34,41.42c33.81,13.51,57.41,15.27,78.23-16.77C418.24,19,425.16,15.48,432.8,9.14ZM428.34,33C402.76,81.09,371.6,76.7,327,57.72c-80.66-34.3-157.68-13.84-219.72,47s-82.82,137.75-51,219.12c17.39,44.48,28.22,78.34-22.08,104.18,15.54,19.75,29.57,35.24,47.94,47.64,15-13.84,27.44-32.32,44.62-39.45,20.82-8.65,37.71,13.86,57.45,20.22,85.5,27.52,161.69,11,223.58-52.38S485.19,263.87,454,179.58c-6.26-16.93-14.76-33-22.45-50L476.68,81Z"/><path d="M134.6,331.73C97,264.36,106.06,198.46,155.34,151.15c48.38-46.45,114.84-53.67,170.54-18.55-.34,8-6.34,12.48-11.22,17.41C255.87,209.49,197,268.84,134.6,331.73Zm-1.54-43.67L287.64,133c-44.72-13.62-88-1-123.16,35.24C130.48,203.32,119.94,245.78,133.06,288.06Z"/><path d="M189,382.86,381.68,189.61c32.9,52.68,25.36,118.73-20.85,167.3C313.37,406.79,230.69,416.11,189,382.86Zm189.9-158.5L222.57,378.58c47.44,14,91.33,1.19,126.63-37C382,306.19,392.74,264.32,378.85,224.36Z"/><path d="M395.58,366c-27.05,55.09-90.71,84.13-146.87,68.48C303.11,423.41,353.78,404.68,395.58,366Z"/></svg>