<svg xmlns="http://www.w3.org/2000/svg" id="Layer_1" data-name="Layer 1" viewBox="0 0 512 512"><defs><style>.cls-1{fill:#fff}</style></defs><title>sketchlogo</title><path d="M77.42,35.25c-.17,2,.25,2.86,2,3.83a2.73,2.73,0,0,1,.63.49c2.1,2.18,4.57,3.87,6.27,6.57a2,2,0,0,0,.76.61A25.76,25.76,0,0,1,92.67,51c1.33,1.31,2.8,2.41,4.11,3.74,1.5,1.52,2.93,3.15,4.33,4.79a17.06,17.06,0,0,1,1.94,2.73c.88,1.55,1.68,3.08,3.31,3.81.72.32,1.28,1.16,2,1.71s1.45,1.07,2.18,1.59a10.8,10.8,0,0,1,1.77,1.31,19.34,19.34,0,0,0,4.87,3.65A13.84,13.84,0,0,1,121,77.75a33,33,0,0,0,2.39,2.74c1.11,1.1,2.65,1.65,3.15,3.5a.59.59,0,0,0,.21.26c1.33,1.1,2.65,2.23,4,3.29.95.74,2.06,1.13,2.67,2.49.3.66,1.08,1,1.6,1.59A9.24,9.24,0,0,1,137,94a1.87,1.87,0,0,0,1.72,1.36,2.83,2.83,0,0,1,2.35,1.45,12,12,0,0,0,3.08,3.45c1,.85,2,1.6,3,2.48,1.26,1.13,2.45,2.38,3.7,3.52.34.3.84.35,1.23.59a7.84,7.84,0,0,1,2.31,1.63,9.06,9.06,0,0,0,2.28,2.07c2.34,1.6,5.07,2.32,7.11,4.65a.93.93,0,0,0,.26.18,35.59,35.59,0,0,1,6.29,4.89c1.8,1.56,3.52,3.25,5.26,4.91a1.11,1.11,0,0,0,1.61.21,3.79,3.79,0,0,1,1.59-.71,6.58,6.58,0,0,0,3.76-2.11,3.94,3.94,0,0,1,1.21-.84,13.56,13.56,0,0,0,3-1.87,18,18,0,0,1,3.08-1.59,10.35,10.35,0,0,1,1.69-.36c1.94-.48,3.46-2,5.42-2.48,1.08-.26,2.06-.92,3.13-1.23,3.5-1,7-2,10.55-3a1.62,1.62,0,0,1,.87-.06,4.6,4.6,0,0,0,2.86-.41c.37-.12.73-.25,1.11-.34a16.35,16.35,0,0,0,3.52-.88c2.1-1,4.43-.56,6.6-1,.94-.22,1.92-.31,2.87-.47.53-.08,1-.23,1.56-.29.82-.1,1.65-.15,2.47-.23a6.1,6.1,0,0,1,2-.17,5.51,5.51,0,0,0,2.91-.12,6.09,6.09,0,0,1,2.29-.38,30,30,0,0,0,7.93-.32,23,23,0,0,1,4.83-.23c2.41.21,4.82-.12,7.25.61.3.09.65-.14,1-.18.82-.1,1.72-.49,2.44-.18a4.1,4.1,0,0,0,2.59.2,3.93,3.93,0,0,1,1.18.07c.74.09,1.47.23,2.21.32,1.32.17,2.65.3,4,.47s2.84.45,4.27.57c1.76.14,3.55.67,5.29.13a2.09,2.09,0,0,1,.88.16,43.78,43.78,0,0,0,6.61,1.46c2.29.16,4.42,1.67,6.7,1.41.13,0,.28.12.43.17,1.78.62,3.55,1.35,5.35,1.84,1.55.42,3.15.53,4.71.89a2.35,2.35,0,0,1,1.39.91,2,2,0,0,0,1.79,1.14c1.5-.06,2.82.85,4.17,1.42,3,1.27,5.86,3.28,9.05,4a2.17,2.17,0,0,1,.68.37c1.45,1,2.87,2.07,4.34,3,1.86,1.17,3.78,2.19,5.65,3.32,1.27.77,2.53,1.57,3.76,2.42,1.54,1.07,3,2.24,4.56,3.32.69.49,1.47.81,2.14,1.33.85.67,1.58,1.54,2.43,2.2A68.9,68.9,0,0,1,356.1,146c.77.86,1.49,1.78,2.29,2.59s2,1.68,2.88,2.63a9.72,9.72,0,0,1,2.55,3.72,10.71,10.71,0,0,0,2.6,4.37,7.74,7.74,0,0,1,2.32,3.91,2.86,2.86,0,0,0,.45.93,9.21,9.21,0,0,1,1.34,3.15,2.84,2.84,0,0,0,.68,1.35,7.08,7.08,0,0,1,1.55,3,7.23,7.23,0,0,0,.57,1.43c1.26,2.1,2.56,4.17,3.84,6.26.21.34.35.73.56,1.06.74,1.13,1.51,2.24,2.24,3.37a20.09,20.09,0,0,1,2.46,4.06c.81,2.38,2.31,4.18,3.57,6.16a30.93,30.93,0,0,1,2.81,5.68c.77,2.07,1,4.37,2.37,6.18a1.41,1.41,0,0,1,.14.49,8.41,8.41,0,0,0,1.75,3.7,4.91,4.91,0,0,1,1.14,3.17,14.19,14.19,0,0,0,.36,2.74,8.1,8.1,0,0,1-.12,4.48,3.48,3.48,0,0,0,0,1.51,11.07,11.07,0,0,1-.13,4.73,12.23,12.23,0,0,0-.17,1.51c-.22,1.2-.46,2.4-.69,3.6-.13.65-.32,1.29-.39,2-.23,2.18-.31,4.39-.65,6.53a26.39,26.39,0,0,0-.78,4.73,18,18,0,0,1-.88,4.18c-.28,1.3-.58,2.6-.79,3.92s-.28,2.8-.53,4.16a19.37,19.37,0,0,0-.54,4.33,7.46,7.46,0,0,1-.56,2.18c-.13.46-.47.93-.4,1.35.39,2.18-.14,4.19-.39,6.22a44.69,44.69,0,0,0-.84,6,8.17,8.17,0,0,1-.78,2.64c-.22.61-.56,1.15-.8,1.74-.37.95-.7,1.93-1.06,2.89-.21.56-.52,1.07-.68,1.65-.72,2.63-1.88,5-2.72,7.58-.68,2.08-2,3.81-2.89,5.79-1.36,3.06-3.27,5.64-4.86,8.49-.67,1.19-1.19,2.5-1.76,3.76a1.08,1.08,0,0,0,.54,1.56c2,.65,3.35,2.46,5,3.75s2.83,2.67,4.46,3.75c1.91,1.26,3.47,3.3,5.33,4.71,1.34,1,2.73,1.91,4,3a3.56,3.56,0,0,1,1.34,1.8,14.11,14.11,0,0,0,2.12,4.48c.49.68,1,1.36,1.5,2a28.31,28.31,0,0,0,1.95,2.5c1.26,1.31,2.6,2.51,3.89,3.78a20.49,20.49,0,0,0,2.7,2.66,2.94,2.94,0,0,1,1.45,3,2.29,2.29,0,0,0,1.19,2.42,1.87,1.87,0,0,1,1.11,1.54,1.33,1.33,0,0,0,1.32,1.21,10,10,0,0,1,1.91.41,1.44,1.44,0,0,1,1,1.58c0,1.59.13,1.85,1.38,2.52s2.6,1.37,3.92,2a1.7,1.7,0,0,0,1,.2c2.4-.48,4.09,1.42,5.93,2.82a7.64,7.64,0,0,0,1.1.84,8.21,8.21,0,0,1,3.1,2.47,7.67,7.67,0,0,0,3.28,2.31,6,6,0,0,1,4.1,4.94c.09.52.27,1,.33,1.53a2.79,2.79,0,0,0,1.82,2.41A5.13,5.13,0,0,1,441,382a2.35,2.35,0,0,0,.33.78A11.59,11.59,0,0,1,442.9,389a3.37,3.37,0,0,0,1.13,2.56c1.07.91,2.31,1.52,3.18,2.78a.89.89,0,0,0,.53.32c1.38.26,1.93,1.28,2.17,2.78a4.33,4.33,0,0,0,.86,2.2c.94,1,1.85,2,2.74,3.05a8.11,8.11,0,0,1,1.85,5.32c0,.94.07,1.91,0,2.81a5.13,5.13,0,0,0,1.07,3.34c.47.7,1,1.38,1.5,2a2,2,0,0,1,.39,2.46c-.23.57-.34,1.23-.52,1.84a6.07,6.07,0,0,1-.38,1.23,3.74,3.74,0,0,0-.52,2.68c.17.74-.19,1.19-.87,1.17a4.41,4.41,0,0,1-.89-.1,1,1,0,0,0-1.35.84,2.2,2.2,0,0,0,.39,2.35A5.51,5.51,0,0,1,455,430c.52,1.33,1,2.71,1.48,4.05a2.31,2.31,0,0,0,1.72,1.59c1.41.21,2.83.26,4.24.51a2.09,2.09,0,0,1,1.38.86,24.46,24.46,0,0,1,1.07,3.26l-3,2.53c.14.38.19.54.26.7.49,1.2.41,1.53-.64,1.79a5.69,5.69,0,0,1-1.89.13c-.93-.08-1.45-.65-1.69-1.74-.12-.59-.16-1.2-.24-1.8-1.35.11-1.6.34-1.65,1.61-.06,1.47-.12,2.95-.06,4.43a3.4,3.4,0,0,0,1.55,3c.27.16.63.3.76.56.53,1.1,1.31.91,2,.92.11-.15.2-.21.24-.31.71-1.82,1.13-1.93,2.64-.67.2.17.5.33.58.57.64,1.88,2,2.9,3.36,4a3.4,3.4,0,0,1,.58.79c-.15,1-.27,1.78-.4,2.6l-1.15.31a1.35,1.35,0,0,0,1,1.6,3.5,3.5,0,0,0,2.47,0c.46-.21,1.21-.44,1.52-.17a7,7,0,0,1,1.74,2.42,27.64,27.64,0,0,1,1,4c.34,1.54.08,2-1.08,2.58a4,4,0,0,0-2.41,3.2,3,3,0,0,1-1.2,2.14,3.73,3.73,0,0,0-.82,1.24c-.18.32-.28.7-.47,1-.61,1-.5,1.48.53,2.08a7.18,7.18,0,0,1,1.78,1,4.79,4.79,0,0,0,3.39,1.7c1.12,0,1.34.43,1.6,1.86a10.57,10.57,0,0,0-1.64,1.27,18.67,18.67,0,0,0-1.3,1.9,1.46,1.46,0,0,1-.55.5c-1.49.7-1.37,3-2.67,3.82a.55.55,0,0,0-.09.48c.49,1.54-.4,2.3-1.11,3.16a2.53,2.53,0,0,1-2.91.76A14.58,14.58,0,0,1,462.3,495c-1-.59-2-1.32-3.07-1.91a3.11,3.11,0,0,1-1.73-2.3c-.25-1.28-2.08-3.08-3-3-2.53.38-4.78-.65-7-2.21a8.09,8.09,0,0,0-1.68-.8,4.2,4.2,0,0,1-2.1-1.71,8.81,8.81,0,0,0-1.4-1.65,31.92,31.92,0,0,0-4.69-4.08c-1.61-1.08-3.23-2.26-4.87-3.27-2.07-1.28-3.63-3.24-5.47-4.8a1.91,1.91,0,0,1-.53-.64,6.53,6.53,0,0,0-3.56-3.44,7.41,7.41,0,0,1-2.69-2.32,14.94,14.94,0,0,0-1.88-1.85c-1.58-1.48-3.49-2.55-4.49-4.8-.18-.4-.71-.62-1.09-.91a24.77,24.77,0,0,1-2.5-2c-1-1-1.83-2.29-2.86-3.27a38.48,38.48,0,0,1-5.24-5.21,3.57,3.57,0,0,0-.37-.31c-1.17-1.15-2.37-2.25-3.48-3.46a26.12,26.12,0,0,1-2.83-3.52,6.83,6.83,0,0,0-2.49-2.54,3.3,3.3,0,0,1-1.25-1.21,10.72,10.72,0,0,0-2.65-3.21c-.33-.29-.77-.51-1-.89a7.6,7.6,0,0,0-2.63-2.71,2.1,2.1,0,0,1-1-1.48,2.85,2.85,0,0,0-1.24-1.93,9,9,0,0,1-2.22-1.88c-1-1.48-2.65-2.35-3.12-4.33-.06-.26-.45-.46-.68-.69l-2.71-2.65a16.94,16.94,0,0,0-1.3-1.25,6,6,0,0,1-2.53-3.65,2.42,2.42,0,0,0-1.14-1.57,17.26,17.26,0,0,1-2.42-2.13c-2-2.17-3.74-4.75-6.29-6.16a.66.66,0,0,1-.32-.36c-.11-.83-.71-.89-1.19-1.19a4.39,4.39,0,0,1-1.1-.93c-.78-.87-1.9-1.42-2.11-2.86,0-.19-.37-.37-.59-.51-1.22-.79-2.68-1.13-3.44-2.79-.13-.27-.62-.37-.95-.49a22.48,22.48,0,0,1-6.18-3.88,3.27,3.27,0,0,0-1.65-.73,2.71,2.71,0,0,1-1.8-1.18c-.44-.54-1-.94-1.5-1.44a20.32,20.32,0,0,1-2.42-2.66,9,9,0,0,0-2.3-2.59,5.77,5.77,0,0,1-1-1.08c-.4-.45-.79-.91-1.19-1.35s-.69-.71-1-1.06c-.5-.52-1-1.08-1.48-1.54-1.1-1-2.27-1.82-3.33-2.84s-2-1.2-3.06,0a4.81,4.81,0,0,1-2.43,1.9c-.69.15-1,.72-1,1.6.53.49,1.06,1,1.57,1.46,1.09,1.1,1.06,1.61-.09,2.4a5.8,5.8,0,0,0-.63.59l.88,1.51a13,13,0,0,1-4.29,1.21c-2.7.1-5.39.26-8.09.36-1.32.06-2.65,0-4,.05a5.63,5.63,0,0,0-1.59.19,6.39,6.39,0,0,1-3.8.07,6.69,6.69,0,0,0-4.34.36,5.86,5.86,0,0,1-5.16-.14c-1.31-.67-3.5,0-3.86,1.25a3.26,3.26,0,0,1-1.9,2.06c-1.91,1-4,1-6.41,1.35l.91-.85c-1.09-.46-1.51-.09-1.87.58-.85,1.57-2.63,1.76-4,.42a12.3,12.3,0,0,1-2.94,1.15c-2.44.29-4.82,1.21-7.4.41a1.1,1.1,0,0,0-.44,0c-2.66.29-5.42-.12-8,.75a1,1,0,0,1-.59,0c-1.8-.59-3.52-.13-5.27,0-.24,0-.49,0-.74,0l-4.58-.14c-1,0-2.06,0-3.09-.06a12.51,12.51,0,0,0-2.19-.11,2.43,2.43,0,0,1-2.13-.52,1.72,1.72,0,0,0-1.82-.37A2.24,2.24,0,0,1,233,387a2,2,0,0,0-1.14-.29c-1.33-.06-2.65-.08-4-.11l-.37-1c-.73-.08-1.49.11-1.85-.25a3.24,3.24,0,0,0-2.54-.88,6.32,6.32,0,0,1-3.29-.79,3.1,3.1,0,0,0-1.9-.24,5.65,5.65,0,0,1-2.33-.34c-1.41-.42-2.84-.66-4.26-1a3.44,3.44,0,0,1-1.28-.45,7.51,7.51,0,0,0-4.18-1.28,14.81,14.81,0,0,1-1.48-.14c-2.22-.43-4.44-.83-6.64-1.35a22.61,22.61,0,0,1-3-1.09c-.77-.3-1.51-.68-2.27-1-1-.37-2-.63-3-1a44.2,44.2,0,0,0-5.27-2.22,9.58,9.58,0,0,1-5.32-2.85,2.52,2.52,0,0,0-1.07-.65c-1.39-.51-2.82-.87-4.19-1.46a27.71,27.71,0,0,1-4.74-2.39c-1.57-1.06-3.15-2.12-4.77-3.07a1.86,1.86,0,0,0-.85-.34c-1.06,0-1.55-.85-2.16-1.7a17.82,17.82,0,0,0-2.6-3c-1.3-1.13-2.39-2.59-3.92-3.38a12.11,12.11,0,0,1-2.23-1.82,8,8,0,0,1-.86-1c-.92-1.16-1.6-2.61-2.86-3.35a17.35,17.35,0,0,1-5-4.7c-.3-.4-.7-.87-1.09-.95-1.23-.27-2.06-1.29-3-2.12s-1.53-1.73-2.36-2.52c-1.1-1.05-2.25-2.05-3.42-3-.78-.65-1.25-1.73-2.28-2.07a4.06,4.06,0,0,1-2.17-2.37,4.78,4.78,0,0,0-1.34-1.61,2.6,2.6,0,0,1-1-1.28,5.33,5.33,0,0,0-.71-1.15c-.53-.79-1.07-1.58-1.61-2.36-.35-.51-.68-1-1.06-1.52a23,23,0,0,1-3.61-5.09,30.81,30.81,0,0,0-1.71-2.94c-.52-.87-1-1.73-1.58-2.6-.23-.39-.45-.79-.69-1.17-.48-.77-1-1.53-1.46-2.29a15,15,0,0,1-2.52-4.62c0-.24-.37-.41-.51-.65-1.08-1.86-2.38-3.57-2.72-5.87a6,6,0,0,0-1.67-3.87,3.75,3.75,0,0,1-.64-1.38c-.17-.49-.23-1-.43-1.5a50.75,50.75,0,0,1-3-9.88,46.39,46.39,0,0,1-.95-4.72,26.91,26.91,0,0,0-1.23-5.75,6.1,6.1,0,0,1-.32-2,4.56,4.56,0,0,0-.55-2.31,4,4,0,0,1-.49-3.29,3.17,3.17,0,0,0,0-1.34c-.28-2.11-.64-4.21-.87-6.32-.14-1.29-.79-2.59-.26-3.88a.93.93,0,0,0-.19-.64,5.14,5.14,0,0,1-.59-3.14c-.06-2.06-.16-4.12-.32-6.17a1.45,1.45,0,0,0-.64-1,1.39,1.39,0,0,1-1-1.4c0-.69.42-.89.83-1.2s.77-.7.73-1c-.25-1.83,1-3.46.11-5.35-.07-.16.07-.43.11-.65.49-2.62.93-5.25,1.49-7.85.31-1.4.82-2.72,1.22-4.09a8.61,8.61,0,0,1,.64-2.17,4.27,4.27,0,0,0,.58-2,9.68,9.68,0,0,1,1.54-4.57c.88-1.2,1.78-2.37,2.61-3.61,1.47-2.21,2.94-4.42,4.34-6.69a10.68,10.68,0,0,0,1.57-3.28,9.68,9.68,0,0,1,1.41-3.35c.79-1.23,1.53-2.51,2.26-3.79.21-.36.5-.85.41-1.21-.42-1.76.72-2.52,1.39-3.59.33-.52.86-.93,1-1.52a3.55,3.55,0,0,1,1.75-2.25,3.11,3.11,0,0,0,1.82-2.37,4.56,4.56,0,0,1,1.34-2.63,20.59,20.59,0,0,0,1.94-2.81,1.25,1.25,0,0,0-.37-1.76,9.25,9.25,0,0,1-2-2.38,9.56,9.56,0,0,0-2.37-2.77,11.28,11.28,0,0,1-1-.83c-1.29-1.37-2.08-3.37-3.83-4.2a7.63,7.63,0,0,1-1.27-.91c-.33-.25-.9-.48-1-.78a5.1,5.1,0,0,0-2.36-3.31,1.56,1.56,0,0,1-.4-.54,6.45,6.45,0,0,0-2.86-3.06,19.5,19.5,0,0,1-3.2-2.94,10.93,10.93,0,0,1-2-2.22,4.11,4.11,0,0,0-2.58-2c-1.29-.34-2.08-1.39-3-2.38-.26-.29-.45-.67-.72-.93-1.63-1.53-3.28-3-4.92-4.55-.44-.4-.87-.83-1.28-1.27-.75-.79-1.29-1.89-2.45-2-.22,0-.44-.45-.67-.69-1.32-1.36-2.63-2.74-4-4.05a13.72,13.72,0,0,1-2.87-2.92,2.93,2.93,0,0,0-1.14-.83c-.89-.54-1.8-1.06-2.71-1.57-1.43-.81-2-2.73-3.52-3.55A55.45,55.45,0,0,1,68,117.22c-1.52-1-2.62-2.91-4.47-3.3-.08,0-.15-.15-.24-.22-1.33-1-2.68-1.93-4-3a2.11,2.11,0,0,1-.78-1,2.27,2.27,0,0,0-1.06-1.42,15,15,0,0,1-4.37-5.2c-.78-1.4-1.38-3-2.22-4.43-.52-.89-1.08-1.76-1.66-2.7a7.66,7.66,0,0,1-.74.63,2.38,2.38,0,0,0-1.33,2.93,1.23,1.23,0,0,1-.24.91A12.59,12.59,0,0,1,45,102.41c-1.19.89-1.7.5-2.13-1.2a6.65,6.65,0,0,0-3.65-4.84,2,2,0,0,1-1-1c-.76-2.42-1.16-4.84,0-7.11a3.84,3.84,0,0,0,.46-1.51c0-1-.09-2.06-.1-3.08A27.1,27.1,0,0,1,39.28,76a3.52,3.52,0,0,1,1.3-2.07c1.16-.84,2.22-1.85,3.31-2.8a1.06,1.06,0,0,0,.36-.5c.35-1.5.68-3,1-4.66-1.2-.06-1.33,1.12-2,1.47a10,10,0,0,1-1-4.84,4.7,4.7,0,0,1,1.65-4,10.81,10.81,0,0,0,2.37-4,12.1,12.1,0,0,1,1.23-2.93,6.61,6.61,0,0,0,.59-1.32,7.38,7.38,0,0,1,.79-1.75c1.57-1.81,1.92-4.24,2.3-6.69a3.07,3.07,0,0,0-.72-2.69c-.77-.92-.66-1.2-.16-2.23a12.06,12.06,0,0,0,1.14-3.18,32,32,0,0,0,0-8,2.86,2.86,0,0,1,.47-2,18.12,18.12,0,0,0,1.57-3.29A8.18,8.18,0,0,1,56,17.4a8.39,8.39,0,0,1,2.68-1.11,3.33,3.33,0,0,1,3.12,1.21c.64,1.36,2,2.58,1.09,4.33,0,0,0,.11,0,.17q.33,3.51.67,7a5.35,5.35,0,0,0,.24.9c.65.31.92-.07,1.15-.51a4,4,0,0,1,3.93-2.5,5.89,5.89,0,0,0,1-.16c1.43-.17,2,.26,2.49,1.88a6.2,6.2,0,0,0,.87,2c1.27,1.42,2.67,2.7,4.17,4.2C77.44,34.92,77.43,35.09,77.42,35.25Zm89.94,228.59a2.06,2.06,0,0,0,.58,2.21,16.72,16.72,0,0,1,2.36,4.34c.42.93.6,2,1.5,2.61.22.14.31.7.35,1.07a5.25,5.25,0,0,1,0,1.19c-.26,2.24.88,3.75,2.24,5.22,1.19,1.28,2.28,2.7,3.41,4.07a.61.61,0,0,1,.15.3c.29,2,1.54,3.2,2.77,4.52a12.49,12.49,0,0,1,1.81,3.28c1.06,2.27,1.08,2.09,3.11,2.32a52.2,52.2,0,0,1,6.6,1.49,1.89,1.89,0,0,1,.89.67c.74,1,1.45,2,2.16,3a1.75,1.75,0,0,1,.1,1.91c-1,2.34-1,2.52,1.09,3.68a29.39,29.39,0,0,0,3.05,1.47,2.73,2.73,0,0,0,1.45.2,4.35,4.35,0,0,1,3.31.82c1.28.83,2.55,1.68,4.1,1.57.94-.07,1.14.37,1.3,1.73s0,1.78-.93,2c-.37.09-.79.06-1.16.17s-.83.38-1.37.62a6.08,6.08,0,0,0,5,2.92c1.21.11,2.46.65,3.66.15a.55.55,0,0,1,.43.12,4.51,4.51,0,0,0,2.58.73,8.16,8.16,0,0,1,2.46.77c2.13.94,4.3.87,6.46,1,1.28.09,2.56.13,3.85.19a2.23,2.23,0,0,0,.73,0c2.72-.85,5.6-.05,8.37-.27a39.19,39.19,0,0,0,5-.87c.23-.05.37-.52.56-.79s.4-.76.69-.9a5.79,5.79,0,0,1,1.7-.41c.93-.12,1.22.27,1.21,1.61a2.76,2.76,0,0,0,.7,0l5.43-1.16a3.1,3.1,0,0,1,1,0,13.62,13.62,0,0,0,3.07.31c1.88-.27,3.81-.06,5.68-.5,1.2-.28,2.49-.34,3.74-.53,1.57-.24,2.47-1.46,3.28-2.62a13.41,13.41,0,0,1,2.37-3,3.42,3.42,0,0,0,.47-.73,13.32,13.32,0,0,0-3.58-4.12,11,11,0,0,1-2.11-2c-.7-.94-1.32-2-2-3-.06-.09-.11-.25-.18-.28-1.63-.73-2.33-2.79-3.87-3.71a8.53,8.53,0,0,1-1.88-2.06c-1.1-1.38-2.63-2-3.84-3.21-.7-.7-1.41-1.4-2.13-2.08A6.29,6.29,0,0,0,254,289a19.78,19.78,0,0,1-5-4.14,40.11,40.11,0,0,0-3.21-2.75c-1.64-1.43-3.23-3-4.92-4.29-1.43-1.13-3-2-4.62-3.13-.39-1.36-1.59-2.05-2.7-2.84-.3-.21-.74-.36-.86-.66a3.1,3.1,0,0,0-1.93-1.84,2.73,2.73,0,0,1-1.21-1.47,2.87,2.87,0,0,0-2-2,4.93,4.93,0,0,1-1.38-1,22.07,22.07,0,0,0-2.23-1.81,4.89,4.89,0,0,1-2.2-1.85c-.07-.15-.19-.34-.32-.38-1.88-.62-2.92-2.7-4.57-3.81-1.39-.94-2.61-2.24-4.22-2.65a1.08,1.08,0,0,1-.49-.42,18.86,18.86,0,0,0-5.38-4.68,45.4,45.4,0,0,1-7.06-5.93c-1.59-1.49-3.3-2.8-5-4.17s-3.37-2.68-5.06-4a1.46,1.46,0,0,1-.42-.5,11.94,11.94,0,0,0-3.45-3.77c-.12-.11-.3-.17-.37-.31a11,11,0,0,0-3.24-3.22,12.09,12.09,0,0,1-2.89-3.13,8.19,8.19,0,0,0-3-2.77c-1.51-.75-2.36-2.22-3.51-3.36-.42-.43-.75-1-1.15-1.46-1.09-1.28-2.33-1.44-3.46-.5s-2.11,1.66-3.16,2.5a3.34,3.34,0,0,0-.74.76c-1.14,1.86-2.26,3.74-3.37,5.62-.43.72-.83,1.47-1.25,2.2a6.22,6.22,0,0,0-.39,3.46c0,.71.1,1.32-.39,1.84a2.5,2.5,0,0,0-.35,1.06c-.05.21,0,.51-.06.66-1.16,1.78-.72,4-.68,6a12.47,12.47,0,0,0,1.39,5c1,2.18,2.27,4.24,2.77,6.68a2.16,2.16,0,0,0,.9,1.34c1.62.73,2.62,2.23,3.72,3.64.55.71,1.12,1.39,1.81,2.23C167.85,260.66,168.1,262.41,167.36,263.84Zm162.18-40.08a8.66,8.66,0,0,0-1.05-3.95,7.75,7.75,0,0,1-.95-3.79,10.52,10.52,0,0,0-1.53-5.25,4,4,0,0,1-.5-1.46,28.14,28.14,0,0,0-2.21-7.41,1.89,1.89,0,0,1-.25-.64,5.93,5.93,0,0,0-1.77-3.44,3.9,3.9,0,0,1-1.2-2.91,3.47,3.47,0,0,0-.77-1.66c-.75-1.12-1.57-2.18-2.35-3.29-1.55-2.2-3.13-4.37-4.63-6.62-1-1.48-2.43-1.92-3.71-2.73a25.21,25.21,0,0,0-2.54-1.14c-.79-.38-1.56-.85-2.34-1.29s-1.85-1-2.72-1.6c-1.84-1.3-4-1.29-5.84-2.75-.21-.17-.5-.21-.68-.4-2.24-2.32-5.09-2.92-7.66-4.29a22,22,0,0,0-3.2-1,4.37,4.37,0,0,1-1.8-.9,5.17,5.17,0,0,0-2.45-1.29c-1-.31-1.85-.4-2.29.94-.25.79-1,.76-1.63.71-1.62-.1-3.24-.16-4.86-.28-.68-.05-1.37-.28-2.06-.33-1.67-.11-3.35-.13-5-.24-1.08-.07-2.17-.27-3.25-.33-1.32-.07-2.63,0-3.95-.07-1.52,0-3-.09-4.57-.16-1.07-.05-2.16-.23-3.23-.19a9.23,9.23,0,0,1-3.52-.32,4.2,4.2,0,0,0-2.45.15,11.89,11.89,0,0,1-4.21.24,61.86,61.86,0,0,0-7.94,0c-1.51.1-2.42,1.48-3.15,2.81-.23.43.1,1.32.22,2A8.62,8.62,0,0,0,228,173a5.91,5.91,0,0,0,1.54,2.35c1.73,1.18,3,3,4.72,4.2.35.23.71.47,1.08.67,1.56.85,3.13,1.68,4.69,2.54a1.66,1.66,0,0,1,.73.62,3.91,3.91,0,0,0,2.18,1.85,14.43,14.43,0,0,1,4,3.42,4.65,4.65,0,0,0,2.39,1.78,3.91,3.91,0,0,1,1.85,1.19,15.64,15.64,0,0,0,3.08,2.3c1.79,1.19,3.45,2.7,5.18,4a5.88,5.88,0,0,0,1.85,1.19,6.31,6.31,0,0,1,3,2.42,18.76,18.76,0,0,0,1.77,2c1.32,1.21,2.76,2.26,4,3.53s2.5,2.8,3.74,4.21a5.1,5.1,0,0,0,.47.46c3.37,2.86,5.91,6.71,8.87,10,1.77,2,2.35,4.66,3.79,6.8.15.23.19.59.36.78,1.37,1.42,2.72,2.88,4.16,4.2a24,24,0,0,1,4.08,4.48,22.32,22.32,0,0,0,3.38,3.62,3.89,3.89,0,0,1,1.39,1.83,2.26,2.26,0,0,0,.5.86c1.7,1.88,3.42,3.74,5.14,5.61a1.39,1.39,0,0,0,.23.25c2,1.53,4,3.05,5.95,4.59.85.67,1.69,1.35,2.48,2.11,1.5,1.42,3,2.85,4.41,4.38a19.12,19.12,0,0,1,1.92,2.79c.63,1,1.12,2.15,1.82,3.1a6,6,0,0,0,2,1.83c.81.37,1.47-.31,2-1,1.52-2.22,2.1-5,2.85-7.66a2.87,2.87,0,0,0,0-1.51,3.13,3.13,0,0,1,.73-3c.32-.45.8-1,.76-1.51a10.9,10.9,0,0,1,.79-3.83,11.65,11.65,0,0,0,.19-2.16c.05-.73.09-1.45.15-2.17a2.63,2.63,0,0,0,.09-.67c-.6-3.21.32-6.39-.71-9.66a29.13,29.13,0,0,1-.71-5.24l-.35,0C330.14,228.31,329.71,226,329.54,223.76ZM48.37,68.2c.26,0,.63-.25.79-.53a22,22,0,0,0,1.22-2.59,1.89,1.89,0,0,0-.55-2.15c-.49-.29-1.31,0-1.63.87a5.62,5.62,0,0,0-.42,3.84C47.87,67.73,48.12,68.17,48.37,68.2ZM461.49,464.56c.36.73.56,1.66,1,1.91.75.43.79-.68,1.12-1.13s.88-.72.51-1.69A3.8,3.8,0,0,0,461.49,464.56ZM54.91,43.75c.19-.14.18-.63.27-1-.34-.12-.82-.46-1-.32a3.82,3.82,0,0,0-.66,1.22l.24.35A3,3,0,0,0,54.91,43.75ZM283.14,384.11c-1.08-.51-1.39-.39-1.87.75A1.5,1.5,0,0,0,283.14,384.11ZM47.69,71.47a1.49,1.49,0,0,0,.24-.66s-.3-.24-.35-.2a4.15,4.15,0,0,0-.55.67C47.37,71.39,47.63,71.54,47.69,71.47ZM194.28,308.78a1.48,1.48,0,0,0-.44-.24c-.06,0-.19.24-.17.37s.16.27.26.42Z"/><path d="M100.91,205.09l-1.11-.56a2.17,2.17,0,0,1,.77-1.88c1.37-1.48,1.38-1.65.19-3.48a1.91,1.91,0,0,1-.21-2.21c.28-.44.57-.88.82-1.33a3.69,3.69,0,0,0,.51-1.17,1.56,1.56,0,0,0-.24-1.08.91.91,0,0,0-.93-.07,4.6,4.6,0,0,0-1.34,1.19c-.83,1.19-1.54,2.49-2.36,3.68a15.8,15.8,0,0,1-1.32,1.39c-1.07,1.21-2.42,2.24-3.09,3.72a24,24,0,0,0-1.25,5.65c-.14.82,0,1.79-.94,2a2.28,2.28,0,0,1-2.34-.85c-1.19-1.32-1.95-1.15-2.47.55-.39,1.25-.64,2.58-1.12,3.76a20.24,20.24,0,0,1-1.7,3,3.33,3.33,0,0,0-.63,3,.89.89,0,0,1,0,.51,21.41,21.41,0,0,0-.26,5.55c0,1.13.12,2.27.18,3.41a3.38,3.38,0,0,1,0,1,6.37,6.37,0,0,0,.6,3.86,2.69,2.69,0,0,0,1.09,1.13,7.49,7.49,0,0,1,3,3.5c.68,1.64,2.13,2.37,3.41,3.2.18.12.79-.22.89-.51a4.37,4.37,0,0,1,2.26-2.77,2.94,2.94,0,0,0,1.46-2.47c.34-3.17.81-6.31,1.23-9.47.06-.44.14-.88.23-1.32.47-2.41.84-4.83-.07-7.38a1.8,1.8,0,0,1,.09-1.12c.83-2,1.74-3.91,2.55-5.9a5.39,5.39,0,0,0,.38-2.09c0-1.53-.05-3,1.34-3.68C100.66,205.74,100.71,205.46,100.91,205.09Z"/><path d="M397.17,245a8.42,8.42,0,0,0-.1,3.6,3.9,3.9,0,0,1,.06,2c-.5,1.68,0,3.37.13,5.06a21.63,21.63,0,0,1,.12,4.24,6.6,6.6,0,0,1-1.25,2.53,4.1,4.1,0,0,0-.05,4.07,1.17,1.17,0,0,0,.75.54,2.63,2.63,0,0,0,2.51-1c-.11-.24-.19-.45-.3-.64-.94-1.6-1-2.3-.15-3.71a1.21,1.21,0,0,1,.66-.57c1-.26,2.08-.45,3.13-.64.11,0,.27.12.39.18.08,1.09.08,1.09-1.24,3.39a32,32,0,0,1,.82,3.09c.25,1.57,1.38,2.1,2.33,3,1.12-.62,2.23-1.23,3.61-.51.5.27,1-.17,1.11-.76a8.26,8.26,0,0,0,.29-1.65,12.88,12.88,0,0,1,1.24-5.39,12.83,12.83,0,0,0,.64-2.9,4.17,4.17,0,0,1,.47-1.52c1.57-2.08.84-4.44.14-6.77a14,14,0,0,0-1.2-2.85,12.6,12.6,0,0,0-1.53-2c-.33-.38-.72-.69-1-1.06a1.09,1.09,0,0,0-1.73-.21c-.56.5-1.08,1-1.66,1.51-.29.24-.71.59-1,.49-1.38-.53-2.89-.19-4.18-1.28a.84.84,0,0,0-.83-.13C398.64,245.76,397.94,245.35,397.17,245Z"/><path d="M154.68,106.31c-.05-.7-.1-1.41-.15-2-.8-.3-1.13.21-1.08.65a5.32,5.32,0,0,0,.7,1.55Z"/><path d="M104.21,198.54c.89-.25,1.12-.89,1.26-1.72C104.22,197,104.18,197.05,104.21,198.54Z"/><path d="M47.78,67.64c.09.09.34.53.59.56s.63-.25.79-.53a22,22,0,0,0,1.22-2.59,1.89,1.89,0,0,0-.55-2.15c-.49-.29-1.31,0-1.63.87A5.62,5.62,0,0,0,47.78,67.64Z" class="cls-1"/><path d="M464.12,463.65a3.8,3.8,0,0,0-2.63.91c.36.73.56,1.66,1,1.91.75.43.79-.68,1.12-1.13S464.49,464.62,464.12,463.65Z" class="cls-1"/><path d="M53.77,44a3,3,0,0,0,1.14-.28c.19-.14.18-.63.27-1-.34-.12-.82-.46-1-.32a3.82,3.82,0,0,0-.66,1.22Z" class="cls-1"/><path d="M281.27,384.86a1.5,1.5,0,0,0,1.87-.75C282.06,383.6,281.75,383.72,281.27,384.86Z" class="cls-1"/><path d="M47,71.28c.34.11.6.26.66.19a1.49,1.49,0,0,0,.24-.66s-.3-.24-.35-.2A4.15,4.15,0,0,0,47,71.28Z" class="cls-1"/><path d="M193.93,309.33l.35-.55a1.48,1.48,0,0,0-.44-.24c-.06,0-.19.24-.17.37S193.83,309.18,193.93,309.33Z" class="cls-1"/></svg>