{
  "accessors": [
    {
      "bufferView": 2,
      "componentType": 5126,
      "count": 240,
      "max": [
        0.9454061388969421,
        0.9940574169158936,
        0.973236620426178
      ],
      "min": [
        -0.9454061388969421,
        -0.9940574169158936,
        -0.973236620426178
      ],
      "type": "VEC3"
    },
    {
      "bufferView": 2,
      "byteOffset": 2880,
      "componentType": 5126,
      "count": 240,
      "max": [
        0.9920774698257446,
        0.9435239434242249,
        0.9456755518913269
      ],
      "min": [
        -0.9920774698257446,
        -0.9435239434242249,
        -0.9456755518913269
      ],
      "type": "VEC3"
    },
    {
      "bufferView": 3,
      "componentType": 5126,
      "count": 240,
      "max": [
        0.986808180809021,
        0.14650151133537292,
        1.0,
        1.0
      ],
      "min": [
        -0.986808180809021,
        -0.14650151133537292,
        -1.0,
        1.0
      ],
      "type": "VEC4"
    },
    {
      "bufferView": 1,
      "componentType": 5126,
      "count": 240,
      "max": [
        1.0,
        0.47238200902938843
      ],
      "min": [
        0.0,
        0.0
      ],
      "type": "VEC2"
    },
    {
      "bufferView": 0,
      "componentType": 5125,
      "count": 240,
      "type": "SCALAR"
    },
    {
      "bufferView": 2,
      "byteOffset": 5760,
      "componentType": 5126,
      "count": 559,
      "max": [
        0.9720771312713623,
        0.9711623191833496,
        0.9719198942184448
      ],
      "min": [
        -0.9720770716667175,
        -0.9711629748344421,
        -0.9719203114509583
      ],
      "type": "VEC3"
    },
    {
      "bufferView": 2,
      "byteOffset": 12468,
      "componentType": 5126,
      "count": 559,
      "max": [
        0.999936580657959,
        0.9989109635353088,
        0.9996746778488159
      ],
      "min": [
        -0.999936580657959,
        -0.9989109635353088,
        -0.9996746778488159
      ],
      "type": "VEC3"
    },
    {
      "bufferView": 1,
      "byteOffset": 1920,
      "componentType": 5126,
      "count": 559,
      "max": [
        1.0000001192092896,
        1.0
      ],
      "min": [
        0.0,
        0.0
      ],
      "type": "VEC2"
    },
    {
      "bufferView": 0,
      "byteOffset": 960,
      "componentType": 5125,
      "count": 2880,
      "type": "SCALAR"
    },
    {
      "bufferView": 2,
      "byteOffset": 19176,
      "componentType": 5126,
      "count": 2946,
      "max": [
        0.9554002285003662,
        1.0040310621261597,
        0.9832361936569214
      ],
      "min": [
        -0.9552736282348633,
        -1.0040403604507446,
        -0.9832268357276917
      ],
      "type": "VEC3"
    },
    {
      "bufferView": 2,
      "byteOffset": 54528,
      "componentType": 5126,
      "count": 2946,
      "max": [
        0.9997634887695313,
        0.9998359680175781,
        1.0
      ],
      "min": [
        -0.9999395608901978,
        -0.9999868869781494,
        -1.0
      ],
      "type": "VEC3"
    },
    {
      "bufferView": 1,
      "byteOffset": 6392,
      "componentType": 5126,
      "count": 2946,
      "max": [
        1.0,
        1.0
      ],
      "min": [
        0.0,
        0.0
      ],
      "type": "VEC2"
    },
    {
      "bufferView": 0,
      "byteOffset": 12480,
      "componentType": 5125,
      "count": 15840,
      "type": "SCALAR"
    },
    {
      "bufferView": 4,
      "componentType": 5126,
      "count": 250,
      "max": [
        4.166666507720947
      ],
      "min": [
        0.01666666753590107
      ],
      "type": "SCALAR"
    },
    {
      "bufferView": 6,
      "componentType": 5126,
      "count": 250,
      "max": [
        0.4999900460243225,
        0.99996018409729,
        0.4999900460243225,
        1.0
      ],
      "min": [
        -0.4999900460243225,
        -0.988542914390564,
        -0.4999900460243225,
        -0.008927453309297562
      ],
      "type": "VEC4"
    },
    {
      "bufferView": 4,
      "byteOffset": 1000,
      "componentType": 5126,
      "count": 250,
      "max": [
        4.166666507720947
      ],
      "min": [
        0.01666666753590107
      ],
      "type": "SCALAR"
    },
    {
      "bufferView": 6,
      "byteOffset": 4000,
      "componentType": 5126,
      "count": 250,
      "max": [
        0.9076115489006042,
        0.9078580141067505,
        0.9997413158416748,
        1.0
      ],
      "min": [
        -0.9076117277145386,
        -0.8451205492019653,
        -0.9997413158416748,
        -0.009668084792792797
      ],
      "type": "VEC4"
    },
    {
      "bufferView": 4,
      "byteOffset": 2000,
      "componentType": 5126,
      "count": 21,
      "max": [
        4.166666507720947
      ],
      "min": [
        0.01666666753590107
      ],
      "type": "SCALAR"
    },
    {
      "bufferView": 5,
      "componentType": 5126,
      "count": 21,
      "max": [
        0.7200000286102295,
        0.7200000882148743,
        0.7200000286102295
      ],
      "min": [
        0.7200000286102295,
        0.7199999690055847,
        0.7200000286102295
      ],
      "type": "VEC3"
    },
    {
      "bufferView": 4,
      "byteOffset": 2084,
      "componentType": 5126,
      "count": 250,
      "max": [
        4.166666507720947
      ],
      "min": [
        0.01666666753590107
      ],
      "type": "SCALAR"
    },
    {
      "bufferView": 6,
      "byteOffset": 8000,
      "componentType": 5126,
      "count": 250,
      "max": [
        0.4999900460243225,
        0.99996018409729,
        0.4999900460243225,
        1.0
      ],
      "min": [
        -0.4999900460243225,
        -0.988542914390564,
        -0.4999900460243225,
        -0.008927453309297562
      ],
      "type": "VEC4"
    },
    {
      "bufferView": 4,
      "byteOffset": 3084,
      "componentType": 5126,
      "count": 250,
      "max": [
        4.166666507720947
      ],
      "min": [
        0.01666666753590107
      ],
      "type": "SCALAR"
    },
    {
      "bufferView": 6,
      "byteOffset": 12000,
      "componentType": 5126,
      "count": 250,
      "max": [
        0.4999900460243225,
        0.99996018409729,
        0.4999900460243225,
        1.0
      ],
      "min": [
        -0.4999900460243225,
        -0.988542914390564,
        -0.4999900460243225,
        -0.008927453309297562
      ],
      "type": "VEC4"
    }
  ],
  "animations": [
    {
      "channels": [
        {
          "sampler": 0,
          "target": {
            "node": 3,
            "path": "rotation"
          }
        },
        {
          "sampler": 1,
          "target": {
            "node": 5,
            "path": "rotation"
          }
        },
        {
          "sampler": 2,
          "target": {
            "node": 5,
            "path": "scale"
          }
        },
        {
          "sampler": 3,
          "target": {
            "node": 7,
            "path": "rotation"
          }
        },
        {
          "sampler": 4,
          "target": {
            "node": 8,
            "path": "rotation"
          }
        }
      ],
      "name": "Animation",
      "samplers": [
        {
          "input": 13,
          "interpolation": "LINEAR",
          "output": 14
        },
        {
          "input": 15,
          "interpolation": "LINEAR",
          "output": 16
        },
        {
          "input": 17,
          "interpolation": "LINEAR",
          "output": 18
        },
        {
          "input": 19,
          "interpolation": "LINEAR",
          "output": 20
        },
        {
          "input": 21,
          "interpolation": "LINEAR",
          "output": 22
        }
      ]
    }
  ],
  "asset": {
    "extras": {
      "author": "Tycho Magnetic Anomaly (https://sketchfab.com/Tycho_Magnetic_Anomaly)",
      "license": "CC-BY-4.0 (http://creativecommons.org/licenses/by/4.0/)",
      "source": "https://sketchfab.com/3d-models/cyber-orb-8a81aa847da74a5cb36bd8ba13f6ae5e",
      "title": "Cyber Orb"
    },
    "generator": "Sketchfab-12.67.0",
    "version": "2.0"
  },
  "bufferViews": [
    {
      "buffer": 0,
      "byteLength": 75840,
      "name": "floatBufferViews",
      "target": 34963
    },
    {
      "buffer": 0,
      "byteLength": 29960,
      "byteOffset": 75840,
      "byteStride": 8,
      "name": "floatBufferViews",
      "target": 34962
    },
    {
      "buffer": 0,
      "byteLength": 89880,
      "byteOffset": 105800,
      "byteStride": 12,
      "name": "floatBufferViews",
      "target": 34962
    },
    {
      "buffer": 0,
      "byteLength": 3840,
      "byteOffset": 195680,
      "byteStride": 16,
      "name": "floatBufferViews",
      "target": 34962
    },
    {
      "buffer": 0,
      "byteLength": 4084,
      "byteOffset": 199520,
      "name": "floatBufferViews"
    },
    {
      "buffer": 0,
      "byteLength": 252,
      "byteOffset": 203604,
      "byteStride": 12,
      "name": "floatBufferViews"
    },
    {
      "buffer": 0,
      "byteLength": 16000,
      "byteOffset": 203856,
      "byteStride": 16,
      "name": "floatBufferViews"
    }
  ],
  "buffers": [
    {
      "byteLength": 219856,
      "uri": "scene.bin"
    }
  ],
  "extensionsUsed": [
    "KHR_texture_transform",
    "KHR_materials_clearcoat",
    "KHR_materials_transmission"
  ],
  "images": [
    {
      "uri": "textures/shell_metallicRoughness.png"
    },
    {
      "uri": "textures/shell_normal.jpeg"
    },
    {
      "uri": "textures/material_emissive.png"
    }
  ],
  "materials": [
    {
      "alphaMode": "BLEND",
      "doubleSided": true,
      "extensions": {
        "KHR_materials_clearcoat": {
          "clearcoatFactor": 0.1525172592,
          "clearcoatRoughnessFactor": 0.4791155496,
          "clearcoatRoughnessTexture": {
            "index": 0
          }
        },
        "KHR_materials_transmission": {
          "transmissionFactor": 1.0
        }
      },
      "name": "shell",
      "normalTexture": {
        "extensions": {
          "KHR_texture_transform": {
            "scale": [
              10.4491756309,
              10.4491756309
            ]
          }
        },
        "index": 1
      },
      "pbrMetallicRoughness": {
        "baseColorFactor": [
          0.0,
          0.0,
          0.0,
          0.25
        ],
        "metallicRoughnessTexture": {
          "index": 0
        },
        "roughnessFactor": 0.4100274497
      }
    },
    {
      "doubleSided": true,
      "emissiveFactor": [
        1.0,
        1.0,
        1.0
      ],
      "emissiveTexture": {
        "index": 2
      },
      "name": "material",
      "pbrMetallicRoughness": {
        "baseColorFactor": [
          0.0,
          0.0,
          0.0,
          1.0
        ],
        "metallicFactor": 0.0,
        "roughnessFactor": 0.0
      }
    },
    {
      "doubleSided": true,
      "emissiveFactor": [
        0.1434105939756158,
        0.11367814552224431,
        0.0
      ],
      "extensions": {
        "KHR_materials_clearcoat": {
          "clearcoatFactor": 0.5796073312,
          "clearcoatRoughnessFactor": 0.4728348132
        }
      },
      "name": "frame",
      "pbrMetallicRoughness": {
        "baseColorFactor": [
          0.686379849225281,
          0.35799963149599673,
          0.10821995303251869,
          1.0
        ],
        "roughnessFactor": 0.6612569038
      }
    }
  ],
  "meshes": [
    {
      "name": "Object_0",
      "primitives": [
        {
          "attributes": {
            "NORMAL": 1,
            "POSITION": 0,
            "TANGENT": 2,
            "TEXCOORD_0": 3
          },
          "indices": 4,
          "material": 0,
          "mode": 4
        }
      ]
    },
    {
      "name": "Object_1",
      "primitives": [
        {
          "attributes": {
            "NORMAL": 6,
            "POSITION": 5,
            "TEXCOORD_0": 7
          },
          "indices": 8,
          "material": 1,
          "mode": 4
        }
      ]
    },
    {
      "name": "Object_2",
      "primitives": [
        {
          "attributes": {
            "NORMAL": 10,
            "POSITION": 9,
            "TEXCOORD_0": 11
          },
          "indices": 12,
          "material": 2,
          "mode": 4
        }
      ]
    }
  ],
  "nodes": [
    {
      "children": [
        1
      ],
      "matrix": [
        1.0,
        0.0,
        0.0,
        0.0,
        0.0,
        2.220446049250313e-16,
        -1.0,
        0.0,
        0.0,
        1.0,
        2.220446049250313e-16,
        0.0,
        0.0,
        0.0,
        0.0,
        1.0
      ],
      "name": "Sketchfab_model"
    },
    {
      "children": [
        2
      ],
      "name": "root"
    },
    {
      "children": [
        3,
        5,
        7,
        8
      ],
      "matrix": [
        1.0,
        0.0,
        0.0,
        0.0,
        0.0,
        2.220446049250313e-16,
        1.0,
        0.0,
        0.0,
        -1.0,
        2.220446049250313e-16,
        0.0,
        0.0,
        0.0,
        0.0,
        1.0
      ],
      "name": "GLTF_SceneRootNode"
    },
    {
      "children": [
        4
      ],
      "name": "Sphere.001_0"
    },
    {
      "mesh": 0,
      "name": "Object_4"
    },
    {
      "children": [
        6
      ],
      "name": "Sphere.002_1",
      "scale": [
        0.7200000286102295,
        0.7200000286102295,
        0.7200000286102295
      ]
    },
    {
      "mesh": 1,
      "name": "Object_6"
    },
    {
      "name": "Sphere.003_2"
    },
    {
      "children": [
        9
      ],
      "name": "Sphere.004_3"
    },
    {
      "mesh": 2,
      "name": "Object_9"
    }
  ],
  "samplers": [
    {
      "magFilter": 9729,
      "minFilter": 9987,
      "wrapS": 10497,
      "wrapT": 10497
    }
  ],
  "scene": 0,
  "scenes": [
    {
      "name": "Sketchfab_Scene",
      "nodes": [
        0
      ]
    }
  ],
  "textures": [
    {
      "sampler": 0,
      "source": 0
    },
    {
      "sampler": 0,
      "source": 1
    },
    {
      "sampler": 0,
      "source": 2
    }
  ]
}
