<svg xmlns="http://www.w3.org/2000/svg" version="1.1" x="0px" y="0px" viewBox="0 0 512 640"
     style="enable-background:new 0 0 512 512;" xml:space="preserve"><g><g><g><path d="M136,496c-5.51,0-10-4.49-10-10s4.49-10,10-10h340v-60H326.01H326c-5.521,0-10-4.49-10-10s4.479-10,10-10h160     c2.63,0,5.21,1.069,7.069,2.93c1.86,1.86,2.931,4.44,2.931,7.07v80c0,2.64-1.07,5.21-2.931,7.069     C491.21,494.93,488.64,496,486,496H136z M86,496c-5.51,0-10-4.49-10-10s4.49-10,10-10c5.51,0,10,4.49,10,10S91.51,496,86,496z      M36,496H26c-2.63,0-5.21-1.07-7.07-2.931C17.07,491.21,16,488.63,16,486v-80c0-2.63,1.07-5.21,2.93-7.07     c1.86-1.86,4.44-2.93,7.07-2.93h160c2.63,0,5.21,1.069,7.07,2.93S196,403.37,196,406v20h60c5.51,0,10,4.49,10,10s-4.49,10-10,10     h-70c-2.63,0-5.21-1.07-7.07-2.931C177.07,441.21,176,438.63,176,436v-20H36v60c5.51,0,10,4.49,10,10c0,5.33-4.17,9.72-9.49,9.99     C36.35,495.99,36.18,496,36,496z M306,446c-5.521,0-10-4.49-10-10s4.479-10,10-10c5.51,0,10,4.49,10,10S311.51,446,306,446z"/></g><g><path d="M446,416c-5.51,0-10-4.49-10-10V86c0-5.51,4.49-10,10-10s10,4.49,10,10v320C456,411.51,451.51,416,446,416z"/></g><g><path d="M66,416c-5.51,0-10-4.49-10-10V86c0-5.51,4.49-10,10-10c5.51,0,10,4.49,10,10v320C76,411.51,71.51,416,66,416z"/></g><g><path d="M322.229,366c-8.029,0-16.149-0.01-24.13-0.021l0,0c-5.51,0-9.99-4.489-9.99-10.01c0.011-5.5,4.5-9.99,10-9.99h0.021     c7.63,0.011,15.51,0.021,24.1,0.021c30.29,0,51.33-0.08,62.521-0.24V102.02c0-5.51,4.49-10,10-10s10,4.49,10,10v253.41     c0,2.65-1.08,5.24-2.97,7.11c-1.221,1.16-2.051,1.569-2.66,1.88c-0.051,0.02-0.11,0.05-0.16,0.08     c-0.61,0.28-1.021,0.41-1.34,0.51l-0.011,0.01c-0.569,0.16-0.899,0.23-1.159,0.28l-0.091,0.01c-0.5,0.09-0.77,0.11-1.04,0.141     l-0.069,0.01c-0.53,0.05-0.98,0.07-1.59,0.1c-1.03,0.05-2.4,0.09-4.44,0.13c-3.56,0.08-8.74,0.141-15.41,0.181     C361.83,365.96,344.479,366,322.229,366z M248.05,365.89h-0.02h-0.01c-5.51-0.02-9.98-4.52-9.96-10.02     c0.01-5.5,4.5-9.98,9.99-9.98h0.02h0.01l0,0c2.67,0.01,5.18,1.05,7.06,2.95c1.891,1.89,2.92,4.4,2.91,7.08     C258.04,361.42,253.55,365.89,248.05,365.89z M198,365.74h-0.04c-44.14-0.15-79.25-0.311-80.73-0.32h-0.03     c-5.49-0.021-9.95-4.51-9.95-9.99V86c0-5.51,4.49-10,10-10c5.51,0,10,4.49,10,10v259.47l13.38,0.061     c10.01,0.039,30.78,0.119,57.4,0.21c2.67,0.01,5.18,1.06,7.06,2.949c1.88,1.9,2.91,4.41,2.91,7.08     C207.98,361.27,203.49,365.74,198,365.74z"/></g><g><g><path d="M216,166h-60c-2.63,0-5.21-1.07-7.07-2.93c-1.86-1.86-2.93-4.44-2.93-7.07V96c0-2.63,1.07-5.21,2.93-7.07      c1.86-1.86,4.44-2.93,7.07-2.93h60c2.63,0,5.21,1.07,7.07,2.93c1.86,1.86,2.93,4.44,2.93,7.07v60c0,2.63-1.07,5.21-2.93,7.07      S218.63,166,216,166z M166,146h40v-40h-40V146z"/></g>
    <g><path d="M216,166c-2.67,0-5.18-1.04-7.07-2.93l-60-60c-1.89-1.89-2.93-4.4-2.93-7.07c0-2.67,1.04-5.18,2.93-7.07      c1.89-1.89,4.4-2.93,7.07-2.93c2.67,0,5.18,1.04,7.07,2.93l60,60c3.9,3.9,3.9,10.24,0,14.14C221.18,164.96,218.67,166,216,166z"/></g></g><g><g><path d="M356,166h-60c-2.63,0-5.21-1.07-7.07-2.93S286,158.63,286,156V96c0-2.63,1.069-5.21,2.93-7.07      c1.86-1.86,4.44-2.93,7.07-2.93h60c2.63,0,5.21,1.07,7.069,2.93C364.93,90.79,366,93.37,366,96v60c0,2.63-1.07,5.21-2.931,7.07      C361.21,164.93,358.63,166,356,166z M306,146h40v-40h-40V146z"/></g>
    <g><path d="M356,166c-2.67,0-5.181-1.04-7.07-2.93l-60-60c-3.899-3.9-3.899-10.24,0-14.14c1.89-1.89,4.4-2.93,7.07-2.93      s5.18,1.04,7.069,2.93l60,60c3.9,3.9,3.9,10.24,0,14.14C361.18,164.96,358.67,166,356,166z"/></g></g><g><path d="M256,146c-5.51,0-10-4.49-10-10V66c0-5.51,4.49-10,10-10c5.51,0,10,4.49,10,10v70C266,141.51,261.51,146,256,146z"/></g><g><path d="M256,76L256,76c-8.01,0-15.55-3.12-21.21-8.79C229.12,61.55,226,54.02,226,46c0-8.01,3.12-15.55,8.79-21.21     C240.45,19.12,247.99,16,256,16l0,0l0,0c8.02,0,15.55,3.12,21.21,8.79C282.88,30.45,286,37.99,286,46     c0,8.02-3.12,15.55-8.79,21.21C271.55,72.88,264.02,76,256,76z M256,36c-5.5,0.01-9.99,4.5-10,10c0.01,5.5,4.5,9.99,10,10     c5.5-0.01,9.99-4.5,10-10C265.99,40.5,261.5,36.01,256,36L256,36z"/></g><g><path d="M286,206h-60c-3.49,0-6.67-1.77-8.51-4.74c-1.83-2.97-2-6.61-0.43-9.73l29.99-60c1.71-3.41,5.14-5.53,8.95-5.53     c3.81,0,7.24,2.12,8.939,5.53l30,60c1.561,3.12,1.4,6.76-0.43,9.73C292.67,204.23,289.49,206,286,206z M242.18,186h27.64     L256,158.36L242.18,186z"/></g><g><path d="M256,286c-5.51,0-10-4.49-10-10v-80c0-5.51,4.49-10,10-10c5.51,0,10,4.49,10,10v80C266,281.51,261.51,286,256,286z"/></g><g><path d="M306,326H206c-2.63,0-5.21-1.07-7.07-2.931C197.07,321.21,196,318.63,196,316v-40c0-2.63,1.07-5.21,2.93-7.07     c1.86-1.86,4.44-2.93,7.07-2.93h100c2.63,0,5.21,1.069,7.069,2.93c1.86,1.86,2.931,4.44,2.931,7.07v40     c0,2.63-1.07,5.21-2.931,7.069C311.21,324.93,308.63,326,306,326z M216,306h80v-20h-80V306z"/></g></g></g>
</svg>